<?xml version="1.0" encoding="UTF-8"?>
<svg viewBox="0 0 1440 591" version="1.1" xmlns="http://www.w3.org/2000/svg" xmlns:xlink="http://www.w3.org/1999/xlink">
    <!-- Generator: sketchtool 62 (101010) - https://sketch.com -->
    <title>3C8682C7-5C5F-4F65-AF80-E2AF386D4A97</title>
    <desc>Created with sketchtool.</desc>
    <defs>
        <polygon id="path-1" points="0 312 507.765625 312 507.765625 0.561151079 0 0.561151079"></polygon>
        <polygon id="path-3" points="0 312 507.765625 312 507.765625 0.561151079 0 0.561151079"></polygon>
        <polygon id="path-5" points="0 312 507.765625 312 507.765625 0.561151079 0 0.561151079"></polygon>
        <polygon id="path-7" points="0 312 507.765625 312 507.765625 0.561151079 0 0.561151079"></polygon>
    </defs>
    <g id="Web-Design" stroke="none" stroke-width="1" fill="none" fill-rule="evenodd">
        <g id="Homee-v3" transform="translate(0.000000, -970.000000)">
            <g id="Group-13" transform="translate(-169.000000, 970.000000)">
                <path d="M1395,30 L1524,30 C1524,30 1512.59897,9.01010975 1479.38535,12.0854422 C1447.67808,15.0712018 1446.06835,1.76964263 1429.9415,0.14240363 C1413.81465,-1.48483537 1400.37562,10.9807111 1395,30 Z" id="Path" fill="#F6F6F6" fill-rule="nonzero"></path>
                <g id="Group-2" opacity="0.600771949" transform="translate(120.000000, 279.000000)">
                    <g id="Group-217">
                        <polygon id="Fill-1" fill="#E6E6E6" points="387 94 428 94 428 35 387 35"></polygon>
                        <polygon id="Fill-2" fill="#EFEFEF" points="424 94 465 94 465 35 424 35"></polygon>
                        <g id="Group-104">
                            <path d="M455.526516,81.4129209 C455.515302,81.4016978 455.505209,81.1716259 455.493995,80.7384173 C455.486145,80.2648058 455.474931,79.6385612 455.460352,78.850705 C455.44241,77.1661295 455.417739,74.794705 455.386339,71.8262158 C455.353818,65.8140432 455.30784,57.3978993 455.254012,47.557554 L455.526516,47.8302734 C449.777032,47.8358849 443.474692,47.8426187 436.888635,47.8493525 C436.820229,47.9110791 437.439249,47.3005468 437.177959,47.5642878 L437.177959,47.5743885 L437.177959,47.5923453 L437.177959,47.6305036 L437.177959,47.7068201 L437.177959,47.8583309 L437.177959,48.1613525 L437.177959,48.7673957 L437.177959,49.9738705 C437.177959,50.7751942 437.177959,51.5731511 437.176838,52.3643741 C437.175717,53.9490647 437.174595,55.5124317 437.173474,57.0522302 C437.168988,60.1295827 437.163381,63.1104173 437.158895,65.9700432 C437.139831,71.6791942 437.124132,76.8978993 437.108432,81.4129209 L436.886392,81.190705 C442.552891,81.2400863 447.176476,81.2804892 450.437544,81.3085468 C452.023222,81.3321151 453.27584,81.3500719 454.183063,81.3646619 C454.58565,81.3747626 454.911981,81.3826187 455.173271,81.3893525 C455.399796,81.3960863 455.518666,81.4050647 455.526516,81.4129209 C455.535487,81.420777 455.430074,81.4286331 455.219249,81.4364892 C454.969174,81.4421007 454.657421,81.4510791 454.270533,81.4611799 C453.374525,81.4746475 452.138728,81.4926043 450.574357,81.517295 C447.279646,81.5453525 442.610083,81.5857554 436.886392,81.6351367 L436.664352,81.6373813 L436.664352,81.4129209 C436.648653,76.8978993 436.63071,71.6791942 436.612767,65.9700432 C436.608282,63.1104173 436.603796,60.1295827 436.598189,57.0522302 C436.597068,55.5124317 436.595946,53.9490647 436.594825,52.3643741 C436.594825,51.5731511 436.594825,50.7751942 436.593703,49.9738705 L436.593703,48.7673957 L436.593703,48.1613525 L436.593703,47.8583309 L436.593703,47.7068201 L436.593703,47.6305036 L436.593703,47.5923453 L436.593703,47.5743885 L436.593703,47.5642878 C436.334657,47.8224173 436.94807,47.1995396 436.888635,47.2646331 C443.474692,47.2713669 449.777032,47.2781007 455.526516,47.2837122 L455.801262,47.2848345 L455.80014,47.557554 C455.746313,57.4708489 455.700335,65.950964 455.667814,72.0080288 C455.636414,74.9484604 455.610622,77.2996835 455.5938,78.9696691 C455.579222,79.7350791 455.568008,80.3422446 455.559037,80.8023885 C455.548944,81.2153957 455.53773,81.4241439 455.526516,81.4129209" id="Fill-3" fill="#D2D2D2"></path>
                            <path d="M451.79423,66.3089784 C451.823386,66.3886619 451.569947,66.5278273 451.517241,66.9026763 C451.439863,67.2865036 451.715731,67.7466475 452.234945,67.5558561 C452.757523,67.3785324 452.68351,66.8476835 452.382971,66.5974101 C452.107104,66.3381583 451.821143,66.3897842 451.79423,66.3089784 C451.73928,66.2551079 452.093647,65.976777 452.617347,66.2573525 C452.852843,66.3920288 453.125347,66.660259 453.16011,67.0923453 C453.201603,67.5345324 452.851722,67.9699856 452.427828,68.1080288 C452.010662,68.2662734 451.466777,68.1461871 451.222309,67.7758273 C450.977841,67.4178129 451.022698,67.0373525 451.121382,66.7848345 C451.353514,66.2382734 451.804322,66.2326619 451.79423,66.3089784" id="Fill-5" fill="#D2D2D2"></path>
                            <path d="M507.632737,82.9122043 C507.632737,82.9122043 507.609188,82.6507079 507.597974,82.1366935 C507.590124,81.5957439 507.577788,80.8337007 507.56321,79.8427079 C507.549753,77.7922619 507.527325,74.7957151 507.500411,70.9046935 L507.632737,71.0371252 C490.220561,71.1313986 453.760066,71.1976144 411.681294,71.1976144 C368.426159,71.1976144 331.121241,71.1280317 314.1666,71.0281468 L314.291077,70.9046935 C314.265285,74.2861899 314.246221,76.8944201 314.231642,78.6822475 C314.218185,79.5441755 314.208093,80.2085784 314.200243,80.6810676 C314.189029,81.1299885 314.1666,81.3566935 314.1666,81.3566935 C314.1666,81.3566935 314.145294,81.1299885 314.134079,80.6810676 C314.127351,80.2085784 314.117258,79.5441755 314.10268,78.6822475 C314.089223,76.8944201 314.070159,74.2861899 314.042124,70.9046935 L314.042124,70.7812403 L314.1666,70.780118 C331.121241,70.6813554 368.426159,70.612895 411.681294,70.612895 C453.760066,70.612895 490.220561,70.6779885 507.632737,70.7733842 L507.765064,70.7733842 L507.765064,70.9046935 C507.737029,74.7957151 507.715722,77.7922619 507.702265,79.8427079 C507.686565,80.8337007 507.675351,81.5957439 507.667501,82.1366935 C507.656287,82.6507079 507.632737,82.9122043 507.632737,82.9122043" id="Fill-7" fill="#D2D2D2"></path>
                            <path d="M320.36992,82.5626072 C320.208436,82.5626072 320.078352,80.0060029 320.078352,76.8534561 C320.078352,73.7009094 320.208436,71.144305 320.36992,71.144305 C320.532525,71.144305 320.662608,73.7009094 320.662608,76.8534561 C320.662608,80.0060029 320.532525,82.5626072 320.36992,82.5626072" id="Fill-9" fill="#D2D2D2"></path>
                            <path d="M327.778533,82.5626072 C327.61705,82.5626072 327.486966,80.0060029 327.486966,76.8534561 C327.486966,73.7009094 327.61705,71.144305 327.778533,71.144305 C327.940017,71.144305 328.071222,73.7009094 328.071222,76.8534561 C328.071222,80.0060029 327.940017,82.5626072 327.778533,82.5626072" id="Fill-11" fill="#D2D2D2"></path>
                            <path d="M350.00415,82.5626072 C349.841545,82.5626072 349.711461,80.0060029 349.711461,76.8534561 C349.711461,73.7009094 349.841545,71.144305 350.00415,71.144305 C350.165634,71.144305 350.295717,73.7009094 350.295717,76.8534561 C350.295717,80.0060029 350.165634,82.5626072 350.00415,82.5626072" id="Fill-13" fill="#D2D2D2"></path>
                            <path d="M357.411642,82.5626072 C357.250159,82.5626072 357.120075,80.0060029 357.120075,76.8534561 C357.120075,73.7009094 357.250159,71.144305 357.411642,71.144305 C357.574247,71.144305 357.704331,73.7009094 357.704331,76.8534561 C357.704331,80.0060029 357.574247,82.5626072 357.411642,82.5626072" id="Fill-15" fill="#D2D2D2"></path>
                            <path d="M364.820144,82.5626072 C364.65866,82.5626072 364.527455,80.0060029 364.527455,76.8534561 C364.527455,73.7009094 364.65866,71.144305 364.820144,71.144305 C364.981627,71.144305 365.112833,73.7009094 365.112833,76.8534561 C365.112833,80.0060029 364.981627,82.5626072 364.820144,82.5626072" id="Fill-17" fill="#D2D2D2"></path>
                            <path d="M372.228758,82.5626072 C372.067274,82.5626072 371.936069,80.0060029 371.936069,76.8534561 C371.936069,73.7009094 372.067274,71.144305 372.228758,71.144305 C372.390241,71.144305 372.521446,73.7009094 372.521446,76.8534561 C372.521446,80.0060029 372.390241,82.5626072 372.228758,82.5626072" id="Fill-19" fill="#D2D2D2"></path>
                            <path d="M379.637259,82.5626072 C379.474654,82.5626072 379.34457,80.0060029 379.34457,76.8534561 C379.34457,73.7009094 379.474654,71.144305 379.637259,71.144305 C379.798743,71.144305 379.928826,73.7009094 379.928826,76.8534561 C379.928826,80.0060029 379.798743,82.5626072 379.637259,82.5626072" id="Fill-21" fill="#D2D2D2"></path>
                            <path d="M387.044751,82.5626072 C386.883268,82.5626072 386.753184,80.0060029 386.753184,76.8534561 C386.753184,73.7009094 386.883268,71.144305 387.044751,71.144305 C387.207356,71.144305 387.33744,73.7009094 387.33744,76.8534561 C387.33744,80.0060029 387.207356,82.5626072 387.044751,82.5626072" id="Fill-23" fill="#D2D2D2"></path>
                            <path d="M394.453253,82.5626072 C394.29177,82.5626072 394.161686,80.0060029 394.161686,76.8534561 C394.161686,73.7009094 394.29177,71.144305 394.453253,71.144305 C394.614736,71.144305 394.745942,73.7009094 394.745942,76.8534561 C394.745942,80.0060029 394.614736,82.5626072 394.453253,82.5626072" id="Fill-25" fill="#D2D2D2"></path>
                            <path d="M401.861867,82.5626072 C401.700383,82.5626072 401.569178,80.0060029 401.569178,76.8534561 C401.569178,73.7009094 401.700383,71.144305 401.861867,71.144305 C402.02335,71.144305 402.154555,73.7009094 402.154555,76.8534561 C402.154555,80.0060029 402.02335,82.5626072 401.861867,82.5626072" id="Fill-27" fill="#D2D2D2"></path>
                            <path d="M409.270368,82.5626072 C409.108885,82.5626072 408.977679,80.0060029 408.977679,76.8534561 C408.977679,73.7009094 409.108885,71.144305 409.270368,71.144305 C409.431852,71.144305 409.561936,73.7009094 409.561936,76.8534561 C409.561936,80.0060029 409.431852,82.5626072 409.270368,82.5626072" id="Fill-29" fill="#D2D2D2"></path>
                            <path d="M416.678982,82.5626072 C416.516377,82.5626072 416.386293,80.0060029 416.386293,76.8534561 C416.386293,73.7009094 416.516377,71.144305 416.678982,71.144305 C416.840465,71.144305 416.970549,73.7009094 416.970549,76.8534561 C416.970549,80.0060029 416.840465,82.5626072 416.678982,82.5626072" id="Fill-31" fill="#D2D2D2"></path>
                            <path d="M424.087483,82.5626072 C423.924879,82.5626072 423.794795,80.0060029 423.794795,76.8534561 C423.794795,73.7009094 423.924879,71.144305 424.087483,71.144305 C424.248967,71.144305 424.379051,73.7009094 424.379051,76.8534561 C424.379051,80.0060029 424.248967,82.5626072 424.087483,82.5626072" id="Fill-33" fill="#D2D2D2"></path>
                            <path d="M431.494976,82.5626072 C431.333492,82.5626072 431.203408,80.0060029 431.203408,76.8534561 C431.203408,73.7009094 431.333492,71.144305 431.494976,71.144305 C431.656459,71.144305 431.787664,73.7009094 431.787664,76.8534561 C431.787664,80.0060029 431.656459,82.5626072 431.494976,82.5626072" id="Fill-35" fill="#D2D2D2"></path>
                            <path d="M438.903477,82.5626072 C438.741994,82.5626072 438.610789,80.0060029 438.610789,76.8534561 C438.610789,73.7009094 438.741994,71.144305 438.903477,71.144305 C439.064961,71.144305 439.196166,73.7009094 439.196166,76.8534561 C439.196166,80.0060029 439.064961,82.5626072 438.903477,82.5626072" id="Fill-37" fill="#D2D2D2"></path>
                            <path d="M446.312091,82.5626072 C446.150608,82.5626072 446.019402,80.0060029 446.019402,76.8534561 C446.019402,73.7009094 446.150608,71.144305 446.312091,71.144305 C446.473574,71.144305 446.603658,73.7009094 446.603658,76.8534561 C446.603658,80.0060029 446.473574,82.5626072 446.312091,82.5626072" id="Fill-39" fill="#D2D2D2"></path>
                            <path d="M453.720592,82.5626072 C453.557988,82.5626072 453.427904,80.0060029 453.427904,76.8534561 C453.427904,73.7009094 453.557988,71.144305 453.720592,71.144305 C453.882076,71.144305 454.01216,73.7009094 454.01216,76.8534561 C454.01216,80.0060029 453.882076,82.5626072 453.720592,82.5626072" id="Fill-41" fill="#D2D2D2"></path>
                            <path d="M461.128085,82.5626072 C460.966601,82.5626072 460.836517,80.0060029 460.836517,76.8534561 C460.836517,73.7009094 460.966601,71.144305 461.128085,71.144305 C461.29069,71.144305 461.420774,73.7009094 461.420774,76.8534561 C461.420774,80.0060029 461.29069,82.5626072 461.128085,82.5626072" id="Fill-43" fill="#D2D2D2"></path>
                            <path d="M468.536586,82.5626072 C468.375103,82.5626072 468.245019,80.0060029 468.245019,76.8534561 C468.245019,73.7009094 468.375103,71.144305 468.536586,71.144305 C468.69807,71.144305 468.829275,73.7009094 468.829275,76.8534561 C468.829275,80.0060029 468.69807,82.5626072 468.536586,82.5626072" id="Fill-45" fill="#D2D2D2"></path>
                            <path d="M475.9452,82.5626072 C475.783717,82.5626072 475.652511,80.0060029 475.652511,76.8534561 C475.652511,73.7009094 475.783717,71.144305 475.9452,71.144305 C476.106683,71.144305 476.237889,73.7009094 476.237889,76.8534561 C476.237889,80.0060029 476.106683,82.5626072 475.9452,82.5626072" id="Fill-47" fill="#D2D2D2"></path>
                            <path d="M483.353702,82.5626072 C483.191097,82.5626072 483.061013,80.0060029 483.061013,76.8534561 C483.061013,73.7009094 483.191097,71.144305 483.353702,71.144305 C483.515185,71.144305 483.645269,73.7009094 483.645269,76.8534561 C483.645269,80.0060029 483.515185,82.5626072 483.353702,82.5626072" id="Fill-49" fill="#D2D2D2"></path>
                            <path d="M490.762315,82.5626072 C490.59971,82.5626072 490.469626,80.0060029 490.469626,76.8534561 C490.469626,73.7009094 490.59971,71.144305 490.762315,71.144305 C490.923799,71.144305 491.053883,73.7009094 491.053883,76.8534561 C491.053883,80.0060029 490.923799,82.5626072 490.762315,82.5626072" id="Fill-51" fill="#D2D2D2"></path>
                            <path d="M498.169695,82.5626072 C498.008212,82.5626072 497.878128,80.0060029 497.878128,76.8534561 C497.878128,73.7009094 498.008212,71.144305 498.169695,71.144305 C498.3323,71.144305 498.462384,73.7009094 498.462384,76.8534561 C498.462384,80.0060029 498.3323,82.5626072 498.169695,82.5626072" id="Fill-53" fill="#D2D2D2"></path>
                            <path d="M505.578309,82.5626072 C505.416826,82.5626072 505.286742,80.0060029 505.286742,76.8534561 C505.286742,73.7009094 505.416826,71.144305 505.578309,71.144305 C505.739792,71.144305 505.870998,73.7009094 505.870998,76.8534561 C505.870998,80.0060029 505.739792,82.5626072 505.578309,82.5626072" id="Fill-55" fill="#D2D2D2"></path>
                            <path d="M507.632737,81.4129209 C507.632737,81.5745324 484.771616,81.7047194 456.578177,81.7047194 C428.374645,81.7047194 405.51913,81.5745324 405.51913,81.4129209 C405.51913,81.2513094 428.374645,81.12 456.578177,81.12 C484.771616,81.12 507.632737,81.2513094 507.632737,81.4129209" id="Fill-57" fill="#D2D2D2"></path>
                            <mask id="mask-2" fill="white">
                                <use xlink:href="#path-1"></use>
                            </mask>
                            <g id="Clip-60"></g>
                            <polygon id="Fill-59" fill="#EFEFEF" mask="url(#mask-2)" points="337.310879 311.156029 507.633298 311.156029 507.633298 81.4129209 337.310879 81.4129209"></polygon>
                            <polygon id="Fill-61" fill="#E6E6E6" mask="url(#mask-2)" points="314.167161 311.156029 405.519691 311.156029 405.519691 81.4129209 314.167161 81.4129209"></polygon>
                            <polygon id="Fill-62" fill="#FFFFFF" mask="url(#mask-2)" points="463.982305 237.243453 495.137395 237.243453 495.137395 206.063655 463.982305 206.063655"></polygon>
                            <path d="M480.752809,240.36985 C480.591325,240.36985 480.461242,232.312843 480.461242,222.377102 C480.461242,212.437994 480.591325,204.384354 480.752809,204.384354 C480.915414,204.384354 481.045498,212.437994 481.045498,222.377102 C481.045498,232.312843 480.915414,240.36985 480.752809,240.36985" id="Fill-63" fill="#F1F1F1" mask="url(#mask-2)"></path>
                            <path d="M500.987469,216.517675 C500.987469,216.679286 491.927575,216.809473 480.753818,216.809473 C469.576697,216.809473 460.519045,216.679286 460.519045,216.517675 C460.519045,216.354941 469.576697,216.224754 480.753818,216.224754 C491.927575,216.224754 500.987469,216.354941 500.987469,216.517675" id="Fill-64" fill="#F1F1F1" mask="url(#mask-2)"></path>
                            <polygon id="Fill-65" fill="#FFFFFF" mask="url(#mask-2)" points="419.553051 237.243453 450.708141 237.243453 450.708141 206.063655 419.553051 206.063655"></polygon>
                            <path d="M436.323331,240.36985 C436.161847,240.36985 436.030642,232.312843 436.030642,222.377102 C436.030642,212.437994 436.161847,204.384354 436.323331,204.384354 C436.484814,204.384354 436.616019,212.437994 436.616019,222.377102 C436.616019,232.312843 436.484814,240.36985 436.323331,240.36985" id="Fill-66" fill="#F1F1F1" mask="url(#mask-2)"></path>
                            <path d="M456.558103,216.517675 C456.558103,216.679286 447.498209,216.809473 436.324452,216.809473 C425.147331,216.809473 416.088558,216.679286 416.088558,216.517675 C416.088558,216.354941 425.147331,216.224754 436.324452,216.224754 C447.498209,216.224754 456.558103,216.354941 456.558103,216.517675" id="Fill-67" fill="#F1F1F1" mask="url(#mask-2)"></path>
                            <polygon id="Fill-68" fill="#FFFFFF" mask="url(#mask-2)" points="463.982305 187.990101 495.137395 187.990101 495.137395 156.810302 463.982305 156.810302"></polygon>
                            <path d="M480.752809,191.116835 C480.591325,191.116835 480.461242,183.059827 480.461242,173.124086 C480.461242,163.184978 480.591325,155.131338 480.752809,155.131338 C480.915414,155.131338 481.045498,163.184978 481.045498,173.124086 C481.045498,183.059827 480.915414,191.116835 480.752809,191.116835" id="Fill-69" fill="#F1F1F1" mask="url(#mask-2)"></path>
                            <path d="M500.987469,167.264659 C500.987469,167.426271 491.927575,167.556458 480.753818,167.556458 C469.576697,167.556458 460.519045,167.426271 460.519045,167.264659 C460.519045,167.103047 469.576697,166.971738 480.753818,166.971738 C491.927575,166.971738 500.987469,167.103047 500.987469,167.264659" id="Fill-70" fill="#F1F1F1" mask="url(#mask-2)"></path>
                            <polygon id="Fill-71" fill="#FFFFFF" mask="url(#mask-2)" points="419.553051 187.990101 450.708141 187.990101 450.708141 156.810302 419.553051 156.810302"></polygon>
                            <path d="M436.323331,191.116835 C436.161847,191.116835 436.030642,183.059827 436.030642,173.124086 C436.030642,163.184978 436.161847,155.131338 436.323331,155.131338 C436.484814,155.131338 436.616019,163.184978 436.616019,173.124086 C436.616019,183.059827 436.484814,191.116835 436.323331,191.116835" id="Fill-72" fill="#F1F1F1" mask="url(#mask-2)"></path>
                            <path d="M456.558103,167.264659 C456.558103,167.426271 447.498209,167.556458 436.324452,167.556458 C425.147331,167.556458 416.088558,167.426271 416.088558,167.264659 C416.088558,167.103047 425.147331,166.971738 436.324452,166.971738 C447.498209,166.971738 456.558103,167.103047 456.558103,167.264659" id="Fill-73" fill="#F1F1F1" mask="url(#mask-2)"></path>
                            <polygon id="Fill-74" fill="#FFFFFF" mask="url(#mask-2)" points="463.982305 138.623396 495.137395 138.623396 495.137395 107.443597 463.982305 107.443597"></polygon>
                            <path d="M480.752809,141.749793 C480.591325,141.749793 480.461242,133.692786 480.461242,123.758167 C480.461242,113.817937 480.591325,105.764296 480.752809,105.764296 C480.915414,105.764296 481.045498,113.817937 481.045498,123.758167 C481.045498,133.692786 480.915414,141.749793 480.752809,141.749793" id="Fill-75" fill="#F1F1F1" mask="url(#mask-2)"></path>
                            <path d="M500.987469,117.897617 C500.987469,118.059229 491.927575,118.190538 480.753818,118.190538 C469.576697,118.190538 460.519045,118.059229 460.519045,117.897617 C460.519045,117.736006 469.576697,117.604696 480.753818,117.604696 C491.927575,117.604696 500.987469,117.736006 500.987469,117.897617" id="Fill-76" fill="#F1F1F1" mask="url(#mask-2)"></path>
                            <polygon id="Fill-77" fill="#FFFFFF" mask="url(#mask-2)" points="419.553051 138.623396 450.708141 138.623396 450.708141 107.443597 419.553051 107.443597"></polygon>
                            <path d="M436.323331,141.749793 C436.161847,141.749793 436.030642,133.692786 436.030642,123.758167 C436.030642,113.817937 436.161847,105.764296 436.323331,105.764296 C436.484814,105.764296 436.616019,113.817937 436.616019,123.758167 C436.616019,133.692786 436.484814,141.749793 436.323331,141.749793" id="Fill-78" fill="#F1F1F1" mask="url(#mask-2)"></path>
                            <path d="M456.558103,117.897617 C456.558103,118.059229 447.498209,118.190538 436.324452,118.190538 C425.147331,118.190538 416.088558,118.059229 416.088558,117.897617 C416.088558,117.736006 425.147331,117.604696 436.324452,117.604696 C447.498209,117.604696 456.558103,117.736006 456.558103,117.897617" id="Fill-79" fill="#F1F1F1" mask="url(#mask-2)"></path>
                            <polygon id="Fill-80" fill="#FFFFFF" mask="url(#mask-2)" points="343.072698 138.623396 374.227788 138.623396 374.227788 107.443597 343.072698 107.443597"></polygon>
                            <path d="M358.650243,141.749793 C358.488759,141.749793 358.357554,133.692786 358.357554,123.758167 C358.357554,113.817937 358.488759,105.764296 358.650243,105.764296 C358.811726,105.764296 358.94181,113.817937 358.94181,123.758167 C358.94181,133.692786 358.811726,141.749793 358.650243,141.749793" id="Fill-81" fill="#D2D2D2" mask="url(#mask-2)"></path>
                            <path d="M380.077526,117.897617 C380.077526,118.059229 371.017632,118.190538 359.843875,118.190538 C348.666753,118.190538 339.609102,118.059229 339.609102,117.897617 C339.609102,117.736006 348.666753,117.604696 359.843875,117.604696 C371.017632,117.604696 380.077526,117.736006 380.077526,117.897617" id="Fill-82" fill="#D2D2D2" mask="url(#mask-2)"></path>
                            <polygon id="Fill-83" fill="#FFFFFF" mask="url(#mask-2)" points="343.072698 188.474935 374.227788 188.474935 374.227788 157.296259 343.072698 157.296259"></polygon>
                            <path d="M358.650243,191.602342 C358.488759,191.602342 358.357554,183.546458 358.357554,173.610717 C358.357554,163.671609 358.488759,155.616846 358.650243,155.616846 C358.811726,155.616846 358.94181,163.671609 358.94181,173.610717 C358.94181,183.546458 358.811726,191.602342 358.650243,191.602342" id="Fill-84" fill="#D2D2D2" mask="url(#mask-2)"></path>
                            <path d="M380.077526,167.750167 C380.077526,167.912901 371.017632,168.043088 359.843875,168.043088 C348.666753,168.043088 339.609102,167.912901 339.609102,167.750167 C339.609102,167.588555 348.666753,167.458368 359.843875,167.458368 C371.017632,167.458368 380.077526,167.588555 380.077526,167.750167" id="Fill-85" fill="#D2D2D2" mask="url(#mask-2)"></path>
                            <polygon id="Fill-86" fill="#FFFFFF" mask="url(#mask-2)" points="343.072698 238.328719 374.227788 238.328719 374.227788 207.148921 343.072698 207.148921"></polygon>
                            <path d="M358.650243,241.456014 C358.488759,241.456014 358.357554,233.399007 358.357554,223.464388 C358.357554,213.524158 358.488759,205.470518 358.650243,205.470518 C358.811726,205.470518 358.94181,213.524158 358.94181,223.464388 C358.94181,233.399007 358.811726,241.456014 358.650243,241.456014" id="Fill-87" fill="#D2D2D2" mask="url(#mask-2)"></path>
                            <path d="M380.077526,217.603839 C380.077526,217.76545 371.017632,217.89676 359.843875,217.89676 C348.666753,217.89676 339.609102,217.76545 339.609102,217.603839 C339.609102,217.442227 348.666753,217.310918 359.843875,217.310918 C371.017632,217.310918 380.077526,217.442227 380.077526,217.603839" id="Fill-88" fill="#D2D2D2" mask="url(#mask-2)"></path>
                            <path d="M471.915067,311.104515 C471.906095,311.104515 471.897124,311.010242 471.889274,310.825062 C471.883667,310.611824 471.874696,310.340227 471.864603,310.002414 C471.852268,309.240371 471.836568,308.177551 471.816382,306.818443 C471.796197,304.004832 471.76704,299.975767 471.732276,294.950098 C471.705362,284.808976 471.670599,270.657868 471.630228,254.443968 L471.915067,254.729033 C466.736382,254.731278 461.287438,254.733522 455.691588,254.735767 C450.287499,254.733522 445.021345,254.731278 439.988444,254.730155 L440.274404,254.443968 C440.234034,270.789177 440.198148,285.072717 440.172356,295.312601 C440.137592,300.386529 440.108435,304.455997 440.08825,307.298788 C440.068064,308.672486 440.051243,309.747652 440.040029,310.517551 C440.028815,310.858731 440.022087,311.132573 440.015358,311.349177 C440.006387,311.536601 439.997415,311.631997 439.988444,311.631997 C439.979473,311.631997 439.971623,311.536601 439.962652,311.349177 C439.955923,311.132573 439.948073,310.858731 439.936859,310.517551 C439.926766,309.747652 439.909945,308.672486 439.888638,307.298788 C439.869574,304.455997 439.840418,300.386529 439.804532,295.312601 C439.779861,285.072717 439.745098,270.789177 439.703605,254.443968 L439.702484,254.158904 L439.988444,254.158904 C445.021345,254.156659 450.287499,254.154414 455.691588,254.15217 C461.287438,254.154414 466.736382,254.156659 471.915067,254.158904 L472.201027,254.160026 L472.199906,254.443968 C472.159535,270.657868 472.123649,284.808976 472.097857,294.950098 C472.063093,299.975767 472.032815,304.004832 472.013751,306.818443 C471.992444,308.177551 471.977866,309.240371 471.96553,310.002414 C471.955438,310.340227 471.946466,310.611824 471.939738,310.825062 C471.933009,311.010242 471.924038,311.104515 471.915067,311.104515" id="Fill-89" fill="#D2D2D2" mask="url(#mask-2)"></path>
                            <polygon id="Fill-90" fill="#FFFFFF" mask="url(#mask-2)" points="444.005457 283.875108 454.887647 283.875108 454.887647 257.806273 444.005457 257.806273"></polygon>
                            <path d="M444.035735,283.84705 L454.860733,283.84705 L454.860733,257.836576 L444.035735,257.836576 L444.035735,283.84705 Z M443.978543,283.903165 L454.917925,283.903165 L454.917925,257.78046 L443.978543,257.78046 L443.978543,283.903165 Z" id="Fill-91" fill="#D2D2D2" mask="url(#mask-2)"></path>
                            <polygon id="Fill-92" fill="#FFFFFF" mask="url(#mask-2)" points="457.016088 283.875108 467.898278 283.875108 467.898278 257.806273 457.016088 257.806273"></polygon>
                            <path d="M457.044124,283.84705 L467.869121,283.84705 L467.869121,257.836576 L457.044124,257.836576 L457.044124,283.84705 Z M456.986932,283.903165 L467.926313,283.903165 L467.926313,257.78046 L456.986932,257.78046 L456.986932,283.903165 Z" id="Fill-93" fill="#D2D2D2" mask="url(#mask-2)"></path>
                            <path d="M468.119421,286.571663 C468.118299,286.537994 468.237169,286.478512 468.472666,286.505447 C468.703677,286.529016 469.0558,286.705217 469.274476,287.083433 C469.47633,287.448181 469.647906,287.982397 469.38101,288.569361 C469.121964,289.105822 468.48388,289.549131 467.743747,289.416699 C467.015951,289.25621 466.593178,288.613131 466.535986,288.028412 C466.463094,287.407778 466.838767,286.90162 467.193134,286.688383 C467.956816,286.224872 468.516401,286.557073 468.462573,286.607577 C468.453602,286.696239 467.951209,286.586253 467.439845,287.019462 C467.194255,287.229332 466.999129,287.575001 467.068657,287.962196 C467.124728,288.344901 467.44433,288.762397 467.859253,288.844325 C468.268569,288.92962 468.722741,288.656901 468.902167,288.323577 C469.090564,288.007088 469.024401,287.559289 468.907774,287.274224 C468.652092,286.655836 468.100357,286.663692 468.119421,286.571663" id="Fill-94" fill="#D2D2D2" mask="url(#mask-2)"></path>
                            <path d="M501.608396,254.441387 C501.608396,254.441387 501.598303,254.301099 501.592696,254.047459 C501.587089,253.733214 501.582603,253.369588 501.574753,252.940869 C501.56466,251.890394 501.550082,250.518941 501.534382,248.838855 L501.608396,248.912927 C497.184422,248.92415 490.69817,248.93874 483.432537,248.955574 C483.484122,248.902826 483.314789,249.072294 483.548042,248.838855 L483.548042,248.841099 L483.548042,248.843344 L483.548042,248.848955 L483.548042,248.860178 L483.548042,248.883747 L483.548042,248.928639 L483.548042,249.019545 L483.548042,249.200236 L483.548042,249.561617 L483.548042,250.281013 C483.548042,250.759114 483.548042,251.231603 483.546921,251.700725 C483.546921,252.635603 483.5458,253.551401 483.544678,254.440265 L483.431415,254.326912 C488.573093,254.348236 493.066594,254.366193 496.39719,254.37966 C497.946983,254.392006 499.223151,254.403229 500.211115,254.412207 C500.606974,254.417819 500.946762,254.422308 501.241694,254.425675 C501.478312,254.431286 501.608396,254.441387 501.608396,254.441387 C501.614003,254.445876 501.496254,254.450365 501.269729,254.455977 C500.981526,254.460466 500.650709,254.464955 500.263822,254.469445 C499.282585,254.478423 498.015389,254.489646 496.475689,254.503114 C493.124908,254.515459 488.603371,254.533416 483.431415,254.55474 L483.317031,254.555862 L483.317031,254.440265 C483.31591,253.551401 483.31591,252.635603 483.31591,251.700725 C483.314789,251.231603 483.314789,250.759114 483.314789,250.281013 L483.314789,249.561617 L483.314789,249.200236 L483.314789,249.019545 L483.314789,248.928639 L483.314789,248.883747 L483.314789,248.860178 L483.314789,248.848955 L483.314789,248.843344 L483.314789,248.841099 L483.314789,248.838855 C483.548042,248.605416 483.37983,248.773761 483.432537,248.721013 C490.69817,248.73897 497.184422,248.75356 501.608396,248.76366 L501.68353,248.76366 L501.682409,248.838855 C501.666709,250.536898 501.652131,251.922941 501.642038,252.985761 C501.634188,253.407747 501.629702,253.765761 501.624095,254.075517 C501.618488,254.321301 501.608396,254.441387 501.608396,254.441387" id="Fill-95" fill="#D2D2D2" mask="url(#mask-2)"></path>
                            <path d="M430.897038,242.844639 C430.897038,242.844639 430.886946,242.705473 430.881339,242.450711 C430.875732,242.137588 430.870125,241.773963 430.863396,241.344121 C430.852182,240.294768 430.838725,238.922193 430.821904,237.243229 L430.897038,237.317301 C426.473065,237.327401 419.986813,237.343114 412.720058,237.358826 L412.836685,237.243229 L412.836685,237.244351 L412.836685,237.247718 L412.836685,237.253329 L412.836685,237.26343 L412.836685,237.286999 L412.836685,237.333013 L412.836685,237.422797 L412.836685,237.60461 L412.836685,237.965991 L412.836685,238.685387 C412.835564,239.162365 412.835564,239.635977 412.835564,240.103977 C412.834442,241.039977 412.834442,241.954653 412.833321,242.844639 L412.718937,242.731286 C417.860615,242.751488 422.354116,242.770567 425.685833,242.782912 C427.235626,242.79638 428.511793,242.807603 429.498637,242.816581 C429.895617,242.821071 430.234283,242.82556 430.530336,242.830049 C430.766955,242.834538 430.897038,242.844639 430.897038,242.844639 C430.901524,242.85025 430.784897,242.85474 430.558372,242.859229 C430.269047,242.863718 429.939352,242.868207 429.551343,242.873819 C428.571228,242.881675 427.30291,242.892898 425.764332,242.906365 C422.413551,242.918711 417.892014,242.93779 412.718937,242.959114 L412.605674,242.959114 L412.604553,242.844639 C412.604553,241.954653 412.604553,241.039977 412.603431,240.103977 L412.603431,238.685387 L412.603431,237.965991 L412.603431,237.60461 L412.603431,237.422797 L412.603431,237.333013 L412.603431,237.286999 L412.603431,237.26343 L412.603431,237.253329 L412.603431,237.247718 L412.603431,237.244351 L412.603431,237.243229 C412.836685,237.008668 412.667352,237.178135 412.720058,237.125387 C419.986813,237.142222 426.473065,237.157934 430.897038,237.166912 L430.972173,237.168035 L430.971052,237.243229 C430.955352,238.94015 430.940774,240.327315 430.929559,241.389013 C430.922831,241.812121 430.917224,242.170135 430.912738,242.479891 C430.907131,242.725675 430.897038,242.844639 430.897038,242.844639" id="Fill-96" fill="#D2D2D2" mask="url(#mask-2)"></path>
                            <path d="M419.552602,197.254368 C419.552602,197.254368 419.542509,197.115203 419.536902,196.86044 C419.531295,196.547318 419.52681,196.183692 419.51896,195.75385 C419.508867,194.703376 419.494289,193.331922 419.478589,191.652958 L419.552602,191.72703 C415.128629,191.737131 408.642377,191.752843 401.376743,191.768555 C401.428328,191.716929 401.258995,191.885275 401.492249,191.652958 L401.492249,191.654081 L401.492249,191.657447 L401.492249,191.663059 L401.492249,191.67316 L401.492249,191.696728 L401.492249,191.74162 L401.492249,191.832527 L401.492249,192.01434 L401.492249,192.375721 L401.492249,193.095117 C401.492249,193.572095 401.492249,194.045706 401.491128,194.513706 C401.491128,195.449706 401.490006,196.364383 401.488885,197.254368 L401.375622,197.139894 C406.516178,197.161217 411.010801,197.180296 414.341397,197.192642 C415.891189,197.206109 417.167357,197.217332 418.155322,197.225188 C418.551181,197.2308 418.890969,197.235289 419.1859,197.239778 C419.422518,197.244268 419.552602,197.254368 419.552602,197.254368 C419.557088,197.25998 419.440461,197.264469 419.213936,197.268958 C418.925732,197.273447 418.594916,197.277937 418.206907,197.283548 C417.227913,197.291404 415.959596,197.302627 414.419896,197.316095 C411.069114,197.32844 406.547578,197.347519 401.375622,197.368843 L401.261238,197.368843 L401.261238,197.254368 C401.260117,196.364383 401.260117,195.449706 401.260117,194.513706 C401.258995,194.045706 401.258995,193.572095 401.258995,193.095117 L401.258995,192.375721 L401.258995,192.01434 L401.258995,191.832527 L401.258995,191.74162 L401.258995,191.696728 L401.258995,191.67316 L401.258995,191.663059 L401.258995,191.657447 L401.258995,191.654081 L401.258995,191.652958 C401.492249,191.418397 401.324037,191.587865 401.376743,191.535117 C408.642377,191.551951 415.128629,191.567663 419.552602,191.576642 L419.627737,191.576642 L419.626615,191.652958 C419.610916,193.349879 419.596337,194.737045 419.586245,195.798742 C419.578395,196.22185 419.573909,196.578742 419.568302,196.88962 C419.562695,197.135404 419.552602,197.254368 419.552602,197.254368" id="Fill-97" fill="#D2D2D2" mask="url(#mask-2)"></path>
                            <path d="M484.90226,148.186645 C484.90226,148.186645 484.892168,148.047479 484.886561,147.793839 C484.880954,147.479594 484.876468,147.115968 484.868618,146.686127 C484.858525,145.636774 484.843947,144.264199 484.828247,142.585235 L484.90226,142.659306 C480.478287,142.669407 473.992035,142.685119 466.72528,142.700832 C466.777987,142.649206 466.608653,142.818673 466.841907,142.585235 L466.841907,142.586357 L466.841907,142.589724 L466.841907,142.595335 L466.841907,142.605436 L466.841907,142.629004 L466.841907,142.675019 L466.841907,142.765925 L466.841907,142.946616 L466.841907,143.307997 L466.841907,144.027393 C466.841907,144.505494 466.841907,144.977983 466.840786,145.445983 C466.839664,146.381983 466.839664,147.296659 466.838543,148.186645 L466.72528,148.073292 C471.865837,148.094616 476.360459,148.112573 479.691055,148.124918 C481.240848,148.138386 482.517015,148.149609 483.50498,148.158587 C483.900839,148.163076 484.239506,148.167565 484.535558,148.172055 C484.772177,148.177666 484.90226,148.186645 484.90226,148.186645 C484.906746,148.192256 484.790119,148.196745 484.563594,148.202357 C484.274269,148.205724 483.944574,148.210213 483.556565,148.215824 C482.57645,148.224803 481.309254,148.234904 479.769554,148.248371 C476.418773,148.260717 471.897236,148.279796 466.72528,148.301119 L466.610896,148.301119 L466.610896,148.186645 C466.609775,147.296659 466.609775,146.381983 466.609775,145.445983 C466.608653,144.977983 466.608653,144.505494 466.608653,144.027393 L466.608653,143.307997 L466.608653,142.946616 L466.608653,142.765925 L466.608653,142.675019 L466.608653,142.629004 L466.608653,142.605436 L466.608653,142.595335 L466.608653,142.589724 L466.608653,142.586357 L466.608653,142.585235 C466.841907,142.350673 466.673695,142.520141 466.72528,142.467393 C473.992035,142.484227 480.478287,142.49994 484.90226,142.51004 L484.977395,142.51004 L484.976274,142.585235 C484.960574,144.282155 484.945996,145.669321 484.935903,146.731019 C484.928053,147.154127 484.923567,147.512141 484.91796,147.821896 C484.912353,148.067681 484.90226,148.186645 484.90226,148.186645" id="Fill-98" fill="#D2D2D2" mask="url(#mask-2)"></path>
                            <path d="M433.175974,95.8165468 C433.175974,95.8165468 433.165881,95.6773813 433.160274,95.4226187 C433.154667,95.1083741 433.14906,94.7458705 433.142331,94.3160288 C433.131117,93.265554 433.11766,91.8941007 433.100839,90.2151367 L433.175974,90.2892086 C428.752,90.2993094 422.265748,90.3150216 414.998993,90.3307338 C415.050578,90.2791079 414.882366,90.4474532 415.11562,90.2151367 L415.11562,90.216259 L415.11562,90.2196259 L415.11562,90.2252374 L415.11562,90.2353381 L415.11562,90.2589065 L415.11562,90.3037986 L415.11562,90.394705 L415.11562,90.576518 L415.11562,90.9378993 L415.11562,91.657295 C415.114499,92.1342734 415.114499,92.6078849 415.114499,93.0758849 C415.113377,94.0118849 415.113377,94.9265612 415.112256,95.8165468 L414.997872,95.7020719 C420.13955,95.7233957 424.633051,95.7424748 427.964768,95.7548201 C429.514561,95.7682878 430.790728,95.7795108 431.777572,95.7873669 C432.174552,95.7929784 432.513219,95.7974676 432.809272,95.8019568 C433.04589,95.806446 433.175974,95.8165468 433.175974,95.8165468 C433.180459,95.821036 433.063832,95.8266475 432.836185,95.8311367 C432.547982,95.8356259 432.218287,95.8401151 431.830278,95.8457266 C430.850163,95.8535827 429.582967,95.8648058 428.043267,95.8782734 C424.692486,95.8906187 420.170949,95.9096978 414.997872,95.9310216 L414.884609,95.9310216 L414.884609,95.8165468 C414.883488,94.9265612 414.883488,94.0118849 414.882366,93.0758849 L414.882366,91.657295 L414.882366,90.9378993 L414.881245,90.576518 L414.881245,90.394705 L414.881245,90.3037986 L414.881245,90.2589065 L414.881245,90.2353381 L414.881245,90.2252374 L414.881245,90.2196259 L414.881245,90.216259 L414.881245,90.2151367 C415.11562,89.9805755 414.946287,90.1489209 414.998993,90.097295 C422.265748,90.1141295 428.752,90.1298417 433.175974,90.1388201 L433.251108,90.1388201 L433.249987,90.2151367 C433.234287,91.9120576 433.219709,93.299223 433.208494,94.3609209 C433.201766,94.7840288 433.196159,95.1409209 433.191673,95.4517986 C433.186066,95.6975827 433.175974,95.8165468 433.175974,95.8165468" id="Fill-99" fill="#D2D2D2" mask="url(#mask-2)"></path>
                            <path d="M495.917113,153.611741 C495.917113,153.611741 495.907021,153.472576 495.901414,153.217813 C495.895807,152.904691 495.8902,152.541065 495.883471,152.111223 C495.872257,151.060748 495.8588,149.689295 495.841979,148.010331 L495.917113,148.084403 C491.49314,148.094504 485.006888,148.110216 477.740133,148.125928 L477.85676,148.010331 L477.85676,148.011453 L477.85676,148.01482 L477.85676,148.020432 L477.85676,148.030532 L477.85676,148.054101 L477.85676,148.098993 L477.85676,148.189899 L477.85676,148.371712 L477.85676,148.733094 L477.85676,149.452489 C477.855639,149.929468 477.855639,150.403079 477.855639,150.871079 C477.854517,151.807079 477.854517,152.721755 477.853396,153.611741 L477.739012,153.498388 C482.88069,153.51859 487.374191,153.537669 490.705908,153.550014 C492.255701,153.563482 493.531868,153.574705 494.518712,153.583683 C494.915692,153.588173 495.254358,153.592662 495.550411,153.597151 C495.78703,153.60164 495.917113,153.611741 495.917113,153.611741 C495.921599,153.617353 495.804972,153.621842 495.577325,153.626331 C495.289122,153.63082 494.959427,153.635309 494.571418,153.640921 C493.591303,153.648777 492.322985,153.66 490.784407,153.673468 C487.433626,153.685813 482.912089,153.704892 477.739012,153.726216 L477.625749,153.726216 L477.625749,153.611741 C477.624628,152.721755 477.624628,151.807079 477.623506,150.871079 L477.623506,149.452489 L477.623506,148.733094 L477.623506,148.371712 L477.623506,148.189899 L477.623506,148.098993 L477.623506,148.054101 L477.623506,148.030532 L477.623506,148.020432 L477.623506,148.01482 L477.623506,148.011453 L477.623506,148.010331 C477.85676,147.77577 477.687427,147.945237 477.740133,147.892489 C485.006888,147.909324 491.49314,147.925036 495.917113,147.934014 L495.992248,147.934014 L495.991127,148.010331 C495.975427,149.707252 495.960849,151.094417 495.950756,152.156115 C495.942906,152.579223 495.93842,152.937237 495.932813,153.246993 C495.927206,153.492777 495.917113,153.611741 495.917113,153.611741" id="Fill-100" fill="#D2D2D2" mask="url(#mask-2)"></path>
                            <path d="M411.754185,202.743212 C411.754185,202.743212 411.744093,202.602924 411.738486,202.349283 C411.732879,202.035039 411.728393,201.672535 411.720543,201.242694 C411.71045,200.192219 411.695872,198.820765 411.680172,197.140679 L411.754185,197.215873 C407.330212,197.225974 400.84396,197.241686 393.578327,197.257399 C393.629912,197.205773 393.460578,197.374118 393.693832,197.141801 L393.693832,197.142924 L393.693832,197.145168 L393.693832,197.151902 L393.693832,197.162003 L393.693832,197.185571 L393.693832,197.230463 L393.693832,197.32137 L393.693832,197.503183 L393.693832,197.864564 L393.693832,198.58396 L393.693832,200.00255 C393.692711,200.93855 393.691589,201.853226 393.690468,202.743212 L393.577205,202.628737 C398.718883,202.65006 403.212384,202.66914 406.544102,202.681485 C408.092773,202.694953 409.370062,202.706176 410.356905,202.714032 C410.752764,202.719643 411.092552,202.724132 411.387483,202.728622 C411.624102,202.733111 411.754185,202.743212 411.754185,202.743212 C411.759792,202.747701 411.643166,202.753312 411.415519,202.757801 C411.127316,202.762291 410.796499,202.76678 410.409611,202.772391 C409.429497,202.780247 408.161179,202.791471 406.621479,202.804938 C403.270698,202.817283 398.749161,202.836363 393.577205,202.857686 L393.462821,202.857686 L393.462821,202.743212 C393.4617,201.853226 393.4617,200.93855 393.4617,200.00255 C393.4617,199.53455 393.460578,199.060938 393.460578,198.58396 L393.460578,197.864564 L393.460578,197.503183 L393.460578,197.32137 L393.460578,197.230463 L393.460578,197.185571 L393.460578,197.162003 L393.460578,197.151902 L393.460578,197.145168 L393.460578,197.142924 L393.460578,197.141801 C393.693832,196.90724 393.52562,197.075586 393.578327,197.02396 C400.84396,197.040794 407.330212,197.056506 411.754185,197.065485 L411.82932,197.065485 L411.828199,197.140679 C411.812499,198.838722 411.799042,200.225888 411.787828,201.287586 C411.779978,201.709571 411.775492,202.067586 411.769885,202.378463 C411.764278,202.624247 411.754185,202.743212 411.754185,202.743212" id="Fill-101" fill="#D2D2D2" mask="url(#mask-2)"></path>
                            <path d="M419.552602,101.418181 C419.552602,101.418181 419.542509,101.279016 419.536902,101.025376 C419.531295,100.711131 419.52681,100.347505 419.51896,99.9187856 C419.508867,98.8683108 419.494289,97.4957353 419.478589,95.8167712 L419.552602,95.8908432 C415.128629,95.9020662 408.642377,95.9166561 401.376743,95.9334906 C401.428328,95.8807424 401.258995,96.0502101 401.492249,95.8167712 L401.492249,95.8178935 L401.492249,95.8212604 L401.492249,95.8268719 L401.492249,95.838095 L401.492249,95.860541 L401.492249,95.9065554 L401.492249,95.9974619 L401.492249,96.1781525 L401.492249,96.5395338 L401.492249,97.2589295 C401.492249,97.7370302 401.492249,98.2095194 401.491128,98.6775194 C401.491128,99.6135194 401.490006,100.529318 401.488885,101.418181 L401.375622,101.304829 C406.516178,101.326153 411.010801,101.344109 414.341397,101.356455 C415.891189,101.369922 417.167357,101.381145 418.155322,101.390124 C418.551181,101.394613 418.890969,101.399102 419.1859,101.403591 C419.422518,101.409203 419.552602,101.418181 419.552602,101.418181 C419.557088,101.423793 419.440461,101.428282 419.213936,101.433894 C418.925732,101.43726 418.594916,101.44175 418.206907,101.447361 C417.227913,101.45634 415.959596,101.46644 414.419896,101.479908 C411.069114,101.493376 406.547578,101.511332 401.375622,101.532656 L401.261238,101.532656 L401.261238,101.418181 C401.260117,100.529318 401.260117,99.6135194 401.260117,98.6775194 C401.258995,98.2095194 401.258995,97.7370302 401.258995,97.2589295 L401.258995,96.5395338 L401.258995,96.1781525 L401.258995,95.9974619 L401.258995,95.9065554 L401.258995,95.860541 L401.258995,95.838095 L401.258995,95.8268719 L401.258995,95.8212604 L401.258995,95.8178935 L401.258995,95.8167712 C401.492249,95.5822101 401.324037,95.7516777 401.376743,95.6989295 C408.642377,95.7168863 415.128629,95.7314763 419.552602,95.741577 L419.627737,95.741577 L419.626615,95.8167712 C419.610916,97.5136921 419.596337,98.9008576 419.586245,99.9625554 C419.578395,100.385663 419.573909,100.743678 419.568302,101.053433 C419.562695,101.299217 419.552602,101.418181 419.552602,101.418181" id="Fill-102" fill="#D2D2D2" mask="url(#mask-2)"></path>
                            <path d="M507.504672,260.049643 C507.504672,260.049643 507.494579,259.909355 507.488972,259.655715 C507.483365,259.341471 507.478879,258.977845 507.47103,258.549125 C507.460937,257.49865 507.446358,256.127197 507.430659,254.447111 L507.504672,254.522305 C503.080698,254.532406 496.594447,254.548118 489.328813,254.56383 C489.380398,254.511082 489.211065,254.68055 489.444319,254.448233 L489.444319,254.449355 L489.444319,254.4516 L489.444319,254.458334 L489.444319,254.468435 L489.444319,254.492003 L489.444319,254.536895 L489.444319,254.627801 L489.444319,254.808492 L489.444319,255.170996 L489.444319,255.890391 C489.444319,256.36737 489.444319,256.840981 489.443197,257.308981 C489.443197,258.243859 489.442076,259.159658 489.440955,260.049643 L489.327692,259.935168 C494.46937,259.956492 498.962871,259.975571 502.293467,259.987917 C503.843259,260.001384 505.120548,260.012607 506.107392,260.020463 C506.50325,260.026075 506.843038,260.030564 507.13797,260.035053 C507.374588,260.039542 507.504672,260.049643 507.504672,260.049643 C507.509158,260.054132 507.393652,260.059744 507.166005,260.064233 C506.877802,260.068722 506.546985,260.073212 506.160098,260.077701 C505.179983,260.086679 503.911665,260.097902 502.371966,260.11137 C499.021184,260.123715 494.499648,260.141672 489.327692,260.162996 L489.213308,260.164118 L489.213308,260.049643 C489.212186,259.159658 489.212186,258.243859 489.212186,257.308981 C489.212186,256.840981 489.211065,256.36737 489.211065,255.890391 L489.211065,255.170996 L489.211065,254.808492 L489.211065,254.627801 L489.211065,254.536895 L489.211065,254.492003 L489.211065,254.468435 L489.211065,254.458334 L489.211065,254.4516 L489.211065,254.449355 L489.211065,254.448233 C489.444319,254.213672 489.276107,254.382017 489.328813,254.330391 C496.594447,254.347226 503.080698,254.362938 507.504672,254.371917 L507.579807,254.371917 L507.578685,254.447111 C507.562985,256.145154 507.549528,257.532319 507.538314,258.594017 C507.530464,259.016003 507.525979,259.374017 507.520372,259.684895 C507.514765,259.930679 507.504672,260.049643 507.504672,260.049643" id="Fill-103" fill="#D2D2D2" mask="url(#mask-2)"></path>
                        </g>
                        <polygon id="Fill-105" fill="#EFEFEF" points="134 312 240 312 240 34 134 34"></polygon>
                        <polygon id="Fill-106" fill="#E6E6E6" points="187 312 240 312 240 34 187 34"></polygon>
                        <polygon id="Fill-107" fill="#EFEFEF" points="146 34 184 34 184 1 146 1"></polygon>
                        <polygon id="Fill-108" fill="#E6E6E6" points="175 34 184 34 184 1 175 1"></polygon>
                        <polygon id="Fill-109" fill="#E6E6E6" points="125 34 243 34 243 32 125 32"></polygon>
                        <polygon id="Fill-110" fill="#FFFFFF" points="155 68 164 68 164 49 155 49"></polygon>
                        <g id="Group-216">
                            <path d="M187.038984,74.5091914 C187.038984,74.7100835 175.144158,74.871695 160.474957,74.871695 C145.801271,74.871695 133.908688,74.7100835 133.908688,74.5091914 C133.908688,74.3094216 145.801271,74.1466878 160.474957,74.1466878 C175.144158,74.1466878 187.038984,74.3094216 187.038984,74.5091914" id="Fill-111" fill="#E6E6E6"></path>
                            <mask id="mask-4" fill="white">
                                <use xlink:href="#path-3"></use>
                            </mask>
                            <g id="Clip-114"></g>
                            <polygon id="Fill-113" fill="#F7F7F7" mask="url(#mask-4)" points="208.475126 67.0597986 217.469978 67.0597986 217.469978 48.0794245 208.475126 48.0794245"></polygon>
                            <path d="M240.630292,74.5091914 C240.630292,74.7100835 228.736588,74.871695 214.067387,74.871695 C199.393701,74.871695 187.501118,74.7100835 187.501118,74.5091914 C187.501118,74.3094216 199.393701,74.1466878 214.067387,74.1466878 C228.736588,74.1466878 240.630292,74.3094216 240.630292,74.5091914" id="Fill-115" fill="#EFEFEF" mask="url(#mask-4)"></path>
                            <polygon id="Fill-116" fill="#F7F7F7" mask="url(#mask-4)" points="208.475126 104.743338 217.469978 104.743338 217.469978 85.762964 208.475126 85.762964"></polygon>
                            <path d="M240.630292,112.192955 C240.630292,112.393847 228.736588,112.555459 214.067387,112.555459 C199.393701,112.555459 187.501118,112.393847 187.501118,112.192955 C187.501118,111.993186 199.393701,111.831574 214.067387,111.831574 C228.736588,111.831574 240.630292,111.993186 240.630292,112.192955" id="Fill-117" fill="#EFEFEF" mask="url(#mask-4)"></path>
                            <polygon id="Fill-118" fill="#F7F7F7" mask="url(#mask-4)" points="208.475126 143.564892 217.469978 143.564892 217.469978 124.584518 208.475126 124.584518"></polygon>
                            <path d="M240.630292,151.014285 C240.630292,151.214055 228.736588,151.376788 214.067387,151.376788 C199.393701,151.376788 187.501118,151.214055 187.501118,151.014285 C187.501118,150.813393 199.393701,150.651781 214.067387,150.651781 C228.736588,150.651781 240.630292,150.813393 240.630292,151.014285" id="Fill-119" fill="#EFEFEF" mask="url(#mask-4)"></path>
                            <polygon id="Fill-120" fill="#F7F7F7" mask="url(#mask-4)" points="208.475126 182.386446 217.469978 182.386446 217.469978 163.406072 208.475126 163.406072"></polygon>
                            <path d="M240.630292,189.834492 C240.630292,190.035384 228.736588,190.196996 214.067387,190.196996 C199.393701,190.196996 187.501118,190.035384 187.501118,189.834492 C187.501118,189.634722 199.393701,189.473111 214.067387,189.473111 C228.736588,189.473111 240.630292,189.634722 240.630292,189.834492" id="Fill-121" fill="#EFEFEF" mask="url(#mask-4)"></path>
                            <polygon id="Fill-122" fill="#F7F7F7" mask="url(#mask-4)" points="208.475126 220.095799 217.469978 220.095799 217.469978 201.115424 208.475126 201.115424"></polygon>
                            <path d="M240.630292,227.54564 C240.630292,227.746532 228.736588,227.908144 214.067387,227.908144 C199.393701,227.908144 187.501118,227.746532 187.501118,227.54564 C187.501118,227.345871 199.393701,227.183137 214.067387,227.183137 C228.736588,227.183137 240.630292,227.345871 240.630292,227.54564" id="Fill-123" fill="#EFEFEF" mask="url(#mask-4)"></path>
                            <polygon id="Fill-124" fill="#F7F7F7" mask="url(#mask-4)" points="208.475126 257.958906 217.469978 257.958906 217.469978 238.979655 208.475126 238.979655"></polygon>
                            <polygon id="Fill-125" fill="#F7F7F7" mask="url(#mask-4)" points="208.475126 296.31695 217.469978 296.31695 217.469978 277.336576 208.475126 277.336576"></polygon>
                            <path d="M240.630292,265.407963 C240.630292,265.608855 228.736588,265.770466 214.067387,265.770466 C199.393701,265.770466 187.501118,265.608855 187.501118,265.407963 C187.501118,265.208193 199.393701,265.046581 214.067387,265.046581 C228.736588,265.046581 240.630292,265.208193 240.630292,265.407963" id="Fill-126" fill="#EFEFEF" mask="url(#mask-4)"></path>
                            <polygon id="Fill-127" fill="#FFFFFF" mask="url(#mask-4)" points="154.882808 105.319079 163.87766 105.319079 163.87766 86.338705 154.882808 86.338705"></polygon>
                            <path d="M187.038984,112.76836 C187.038984,112.969252 175.144158,113.130863 160.474957,113.130863 C145.801271,113.130863 133.908688,112.969252 133.908688,112.76836 C133.908688,112.567468 145.801271,112.405856 160.474957,112.405856 C175.144158,112.405856 187.038984,112.567468 187.038984,112.76836" id="Fill-128" fill="#E6E6E6" mask="url(#mask-4)"></path>
                            <polygon id="Fill-129" fill="#FFFFFF" mask="url(#mask-4)" points="154.882808 143.57836 163.87766 143.57836 163.87766 124.597986 154.882808 124.597986"></polygon>
                            <path d="M187.038984,151.027416 C187.038984,151.228308 175.144158,151.389919 160.474957,151.389919 C145.801271,151.389919 133.908688,151.228308 133.908688,151.027416 C133.908688,150.826524 145.801271,150.664912 160.474957,150.664912 C175.144158,150.664912 187.038984,150.826524 187.038984,151.027416" id="Fill-130" fill="#E6E6E6" mask="url(#mask-4)"></path>
                            <polygon id="Fill-131" fill="#FFFFFF" mask="url(#mask-4)" points="154.882808 181.836518 163.87766 181.836518 163.87766 162.856144 154.882808 162.856144"></polygon>
                            <path d="M187.038984,189.286472 C187.038984,189.487364 175.144158,189.648976 160.474957,189.648976 C145.801271,189.648976 133.908688,189.487364 133.908688,189.286472 C133.908688,189.08558 145.801271,188.925091 160.474957,188.925091 C175.144158,188.925091 187.038984,189.08558 187.038984,189.286472" id="Fill-132" fill="#E6E6E6" mask="url(#mask-4)"></path>
                            <polygon id="Fill-133" fill="#FFFFFF" mask="url(#mask-4)" points="154.882808 220.095799 163.87766 220.095799 163.87766 201.115424 154.882808 201.115424"></polygon>
                            <path d="M187.038984,227.54564 C187.038984,227.746532 175.144158,227.908144 160.474957,227.908144 C145.801271,227.908144 133.908688,227.746532 133.908688,227.54564 C133.908688,227.345871 145.801271,227.183137 160.474957,227.183137 C175.144158,227.183137 187.038984,227.345871 187.038984,227.54564" id="Fill-134" fill="#E6E6E6" mask="url(#mask-4)"></path>
                            <polygon id="Fill-135" fill="#FFFFFF" mask="url(#mask-4)" points="154.882808 258.355079 163.87766 258.355079 163.87766 239.374705 154.882808 239.374705"></polygon>
                            <path d="M187.038984,265.804696 C187.038984,266.005588 175.144158,266.1672 160.474957,266.1672 C145.801271,266.1672 133.908688,266.005588 133.908688,265.804696 C133.908688,265.603804 145.801271,265.442193 160.474957,265.442193 C175.144158,265.442193 187.038984,265.603804 187.038984,265.804696" id="Fill-136" fill="#E6E6E6" mask="url(#mask-4)"></path>
                            <polygon id="Fill-137" fill="#FFFFFF" mask="url(#mask-4)" points="154.882808 296.61436 163.87766 296.61436 163.87766 277.633986 154.882808 277.633986"></polygon>
                            <polygon id="Fill-138" fill="#EFEFEF" mask="url(#mask-4)" points="63.9339868 311.184086 147.226923 311.184086 147.226923 92.9950791 63.9339868 92.9950791"></polygon>
                            <polygon id="Fill-139" fill="#DADADA" mask="url(#mask-4)" points="105.579894 311.184086 147.226923 311.184086 147.226923 92.9950791 105.579894 92.9950791"></polygon>
                            <polygon id="Fill-140" fill="#EFEFEF" mask="url(#mask-4)" points="73.4435673 92.9950791 102.857104 92.9950791 102.857104 67.0597986 73.4435673 67.0597986"></polygon>
                            <polygon id="Fill-141" fill="#E6E6E6" mask="url(#mask-4)" points="95.8471523 92.9950791 102.857104 92.9950791 102.857104 67.0597986 95.8471523 67.0597986"></polygon>
                            <polygon id="Fill-142" fill="#E6E6E6" mask="url(#mask-4)" points="56.9924415 92.9950791 149.664874 92.9950791 149.664874 91.4822158 56.9924415 91.4822158"></polygon>
                            <polygon id="Fill-143" fill="#FFFFFF" mask="url(#mask-4)" points="80.3750199 119.185122 87.4253422 119.185122 87.4253422 104.306763 80.3750199 104.306763"></polygon>
                            <path d="M105.580006,125.024909 C105.580006,125.182032 96.2565801,125.308852 84.7587347,125.308852 C73.2552821,125.308852 63.9329775,125.182032 63.9329775,125.024909 C63.9329775,124.867787 73.2552821,124.740967 84.7587347,124.740967 C96.2565801,124.740967 105.580006,124.867787 105.580006,125.024909" id="Fill-144" fill="#E6E6E6" mask="url(#mask-4)"></path>
                            <polygon id="Fill-145" fill="#F7F7F7" mask="url(#mask-4)" points="122.384265 119.185122 129.434587 119.185122 129.434587 104.306763 122.384265 104.306763"></polygon>
                            <path d="M147.589139,125.024909 C147.589139,125.182032 138.265713,125.308852 126.766746,125.308852 C115.264415,125.308852 105.94211,125.182032 105.94211,125.024909 C105.94211,124.867787 115.264415,124.740967 126.766746,124.740967 C138.265713,124.740967 147.589139,124.867787 147.589139,125.024909" id="Fill-146" fill="#EFEFEF" mask="url(#mask-4)"></path>
                            <polygon id="Fill-147" fill="#F7F7F7" mask="url(#mask-4)" points="122.384265 148.725237 129.434587 148.725237 129.434587 133.846878 122.384265 133.846878"></polygon>
                            <path d="M147.589139,154.564239 C147.589139,154.721361 138.265713,154.848181 126.766746,154.848181 C115.264415,154.848181 105.94211,154.721361 105.94211,154.564239 C105.94211,154.405994 115.264415,154.279174 126.766746,154.279174 C138.265713,154.279174 147.589139,154.405994 147.589139,154.564239" id="Fill-148" fill="#EFEFEF" mask="url(#mask-4)"></path>
                            <polygon id="Fill-149" fill="#F7F7F7" mask="url(#mask-4)" points="122.384265 179.155338 129.434587 179.155338 129.434587 164.276978 122.384265 164.276978"></polygon>
                            <path d="M147.589139,184.993442 C147.589139,185.151686 138.265713,185.278506 126.766746,185.278506 C115.264415,185.278506 105.94211,185.151686 105.94211,184.993442 C105.94211,184.836319 115.264415,184.709499 126.766746,184.709499 C138.265713,184.709499 147.589139,184.836319 147.589139,184.993442" id="Fill-150" fill="#EFEFEF" mask="url(#mask-4)"></path>
                            <polygon id="Fill-151" fill="#F7F7F7" mask="url(#mask-4)" points="122.384265 209.584317 129.434587 209.584317 129.434587 194.707079 122.384265 194.707079"></polygon>
                            <path d="M147.589139,215.423879 C147.589139,215.581001 138.265713,215.708944 126.766746,215.708944 C115.264415,215.708944 105.94211,215.581001 105.94211,215.423879 C105.94211,215.266757 115.264415,215.139937 126.766746,215.139937 C138.265713,215.139937 147.589139,215.266757 147.589139,215.423879" id="Fill-152" fill="#EFEFEF" mask="url(#mask-4)"></path>
                            <polygon id="Fill-153" fill="#F7F7F7" mask="url(#mask-4)" points="122.384265 239.144633 129.434587 239.144633 129.434587 224.266273 122.384265 224.266273"></polygon>
                            <path d="M147.589139,244.984083 C147.589139,245.141206 138.265713,245.268026 126.766746,245.268026 C115.264415,245.268026 105.94211,245.141206 105.94211,244.984083 C105.94211,244.826961 115.264415,244.700141 126.766746,244.700141 C138.265713,244.700141 147.589139,244.826961 147.589139,244.984083" id="Fill-154" fill="#EFEFEF" mask="url(#mask-4)"></path>
                            <polygon id="Fill-155" fill="#F7F7F7" mask="url(#mask-4)" points="122.384265 268.823914 129.434587 268.823914 129.434587 253.945554 122.384265 253.945554"></polygon>
                            <polygon id="Fill-156" fill="#F7F7F7" mask="url(#mask-4)" points="122.384265 298.891511 129.434587 298.891511 129.434587 284.013151 122.384265 284.013151"></polygon>
                            <path d="M147.589139,274.663701 C147.589139,274.820823 138.265713,274.947643 126.766746,274.947643 C115.264415,274.947643 105.94211,274.820823 105.94211,274.663701 C105.94211,274.506578 115.264415,274.378636 126.766746,274.378636 C138.265713,274.378636 147.589139,274.506578 147.589139,274.663701" id="Fill-157" fill="#EFEFEF" mask="url(#mask-4)"></path>
                            <polygon id="Fill-158" fill="#FFFFFF" mask="url(#mask-4)" points="80.3750199 149.175281 87.4253422 149.175281 87.4253422 134.296921 80.3750199 134.296921"></polygon>
                            <path d="M105.580006,155.014619 C105.580006,155.171741 96.2565801,155.298561 84.7587347,155.298561 C73.2552821,155.298561 63.9329775,155.171741 63.9329775,155.014619 C63.9329775,154.857496 73.2552821,154.730676 84.7587347,154.730676 C96.2565801,154.730676 105.580006,154.857496 105.580006,155.014619" id="Fill-159" fill="#E6E6E6" mask="url(#mask-4)"></path>
                            <polygon id="Fill-160" fill="#FFFFFF" mask="url(#mask-4)" points="80.3750199 179.165439 87.4253422 179.165439 87.4253422 164.287079 80.3750199 164.287079"></polygon>
                            <path d="M105.580006,185.00444 C105.580006,185.161563 96.2565801,185.288383 84.7587347,185.288383 C73.2552821,185.288383 63.9329775,185.161563 63.9329775,185.00444 C63.9329775,184.847318 73.2552821,184.720498 84.7587347,184.720498 C96.2565801,184.720498 105.580006,184.847318 105.580006,185.00444" id="Fill-161" fill="#E6E6E6" mask="url(#mask-4)"></path>
                            <polygon id="Fill-162" fill="#FFFFFF" mask="url(#mask-4)" points="80.3750199 209.154475 87.4253422 209.154475 87.4253422 194.276115 80.3750199 194.276115"></polygon>
                            <path d="M105.580006,214.994262 C105.580006,215.151384 96.2565801,215.278204 84.7587347,215.278204 C73.2552821,215.278204 63.9329775,215.151384 63.9329775,214.994262 C63.9329775,214.83714 73.2552821,214.710319 84.7587347,214.710319 C96.2565801,214.710319 105.580006,214.83714 105.580006,214.994262" id="Fill-163" fill="#E6E6E6" mask="url(#mask-4)"></path>
                            <polygon id="Fill-164" fill="#FFFFFF" mask="url(#mask-4)" points="80.3750199 239.144633 87.4253422 239.144633 87.4253422 224.266273 80.3750199 224.266273"></polygon>
                            <path d="M105.580006,244.984083 C105.580006,245.141206 96.2565801,245.268026 84.7587347,245.268026 C73.2552821,245.268026 63.9329775,245.141206 63.9329775,244.984083 C63.9329775,244.826961 73.2552821,244.700141 84.7587347,244.700141 C96.2565801,244.700141 105.580006,244.826961 105.580006,244.984083" id="Fill-165" fill="#E6E6E6" mask="url(#mask-4)"></path>
                            <polygon id="Fill-166" fill="#FFFFFF" mask="url(#mask-4)" points="80.3750199 269.134791 87.4253422 269.134791 87.4253422 254.256432 80.3750199 254.256432"></polygon>
                            <path d="M105.580006,274.973793 C105.580006,275.130915 96.2565801,275.257735 84.7587347,275.257735 C73.2552821,275.257735 63.9329775,275.130915 63.9329775,274.973793 C63.9329775,274.816671 73.2552821,274.68985 84.7587347,274.68985 C96.2565801,274.68985 105.580006,274.816671 105.580006,274.973793" id="Fill-167" fill="#E6E6E6" mask="url(#mask-4)"></path>
                            <polygon id="Fill-168" fill="#FFFFFF" mask="url(#mask-4)" points="80.3750199 299.123827 87.4253422 299.123827 87.4253422 284.245468 80.3750199 284.245468"></polygon>
                            <polygon id="Fill-169" fill="#EFEFEF" mask="url(#mask-4)" points="249.491921 311.184086 317.510093 311.184086 317.510093 133.00964 249.491921 133.00964"></polygon>
                            <polygon id="Fill-170" fill="#DADADA" mask="url(#mask-4)" points="283.501007 311.184086 317.510093 311.184086 317.510093 133.00964 283.501007 133.00964"></polygon>
                            <polygon id="Fill-171" fill="#EFEFEF" mask="url(#mask-4)" points="257.258826 133.010763 281.278366 133.010763 281.278366 111.831799 257.258826 111.831799"></polygon>
                            <polygon id="Fill-172" fill="#E6E6E6" mask="url(#mask-4)" points="275.553554 133.010763 281.278366 133.010763 281.278366 111.831799 275.553554 111.831799"></polygon>
                            <polygon id="Fill-173" fill="#E6E6E6" mask="url(#mask-4)" points="243.8243 133.010763 319.5006 133.010763 319.5006 131.775108 243.8243 131.775108"></polygon>
                            <polygon id="Fill-174" fill="#FFFFFF" mask="url(#mask-4)" points="262.918596 154.39623 268.677051 154.39623 268.677051 142.247309 262.918596 142.247309"></polygon>
                            <path d="M283.501343,159.165229 C283.501343,159.293171 275.888072,159.397545 266.497361,159.397545 C257.104407,159.397545 249.492257,159.293171 249.492257,159.165229 C249.492257,159.037286 257.104407,158.932912 266.497361,158.932912 C275.888072,158.932912 283.501343,159.037286 283.501343,159.165229" id="Fill-175" fill="#E6E6E6" mask="url(#mask-4)"></path>
                            <polygon id="Fill-176" fill="#F7F7F7" mask="url(#mask-4)" points="297.222614 154.39623 302.979947 154.39623 302.979947 142.247309 297.222614 142.247309"></polygon>
                            <path d="M317.806258,159.165229 C317.806258,159.293171 310.191865,159.397545 300.802275,159.397545 C291.409322,159.397545 283.797172,159.293171 283.797172,159.165229 C283.797172,159.037286 291.409322,158.932912 300.802275,158.932912 C310.191865,158.932912 317.806258,159.037286 317.806258,159.165229" id="Fill-177" fill="#EFEFEF" mask="url(#mask-4)"></path>
                            <polygon id="Fill-178" fill="#F7F7F7" mask="url(#mask-4)" points="297.222614 178.517871 302.979947 178.517871 302.979947 166.36895 297.222614 166.36895"></polygon>
                            <path d="M317.806258,183.286981 C317.806258,183.414924 310.191865,183.519298 300.802275,183.519298 C291.409322,183.519298 283.797172,183.414924 283.797172,183.286981 C283.797172,183.159039 291.409322,183.054665 300.802275,183.054665 C310.191865,183.054665 317.806258,183.159039 317.806258,183.286981" id="Fill-179" fill="#EFEFEF" mask="url(#mask-4)"></path>
                            <polygon id="Fill-180" fill="#F7F7F7" mask="url(#mask-4)" points="297.222614 203.367885 302.979947 203.367885 302.979947 191.218964 297.222614 191.218964"></polygon>
                            <path d="M317.806258,208.136547 C317.806258,208.264489 310.191865,208.368863 300.802275,208.368863 C291.409322,208.368863 283.797172,208.264489 283.797172,208.136547 C283.797172,208.008604 291.409322,207.90423 300.802275,207.90423 C310.191865,207.90423 317.806258,208.008604 317.806258,208.136547" id="Fill-181" fill="#EFEFEF" mask="url(#mask-4)"></path>
                            <polygon id="Fill-182" fill="#F7F7F7" mask="url(#mask-4)" points="297.222614 228.217899 302.979947 228.217899 302.979947 216.068978 297.222614 216.068978"></polygon>
                            <path d="M317.806258,232.986112 C317.806258,233.114055 310.191865,233.218429 300.802275,233.218429 C291.409322,233.218429 283.797172,233.114055 283.797172,232.986112 C283.797172,232.85817 291.409322,232.753796 300.802275,232.753796 C310.191865,232.753796 317.806258,232.85817 317.806258,232.986112" id="Fill-183" fill="#EFEFEF" mask="url(#mask-4)"></path>
                            <polygon id="Fill-184" fill="#F7F7F7" mask="url(#mask-4)" points="297.222614 252.356374 302.979947 252.356374 302.979947 240.206331 297.222614 240.206331"></polygon>
                            <path d="M317.806258,257.124363 C317.806258,257.252305 310.191865,257.356679 300.802275,257.356679 C291.409322,257.356679 283.797172,257.252305 283.797172,257.124363 C283.797172,256.997542 291.409322,256.893168 300.802275,256.893168 C310.191865,256.893168 317.806258,256.997542 317.806258,257.124363" id="Fill-185" fill="#EFEFEF" mask="url(#mask-4)"></path>
                            <polygon id="Fill-186" fill="#F7F7F7" mask="url(#mask-4)" points="297.222614 276.592489 302.979947 276.592489 302.979947 264.443568 297.222614 264.443568"></polygon>
                            <polygon id="Fill-187" fill="#F7F7F7" mask="url(#mask-4)" points="297.222614 301.146216 302.979947 301.146216 302.979947 288.997295 297.222614 288.997295"></polygon>
                            <path d="M317.806258,281.361263 C317.806258,281.489206 310.191865,281.59358 300.802275,281.59358 C291.409322,281.59358 283.797172,281.489206 283.797172,281.361263 C283.797172,281.233321 291.409322,281.128947 300.802275,281.128947 C310.191865,281.128947 317.806258,281.233321 317.806258,281.361263" id="Fill-188" fill="#EFEFEF" mask="url(#mask-4)"></path>
                            <polygon id="Fill-189" fill="#FFFFFF" mask="url(#mask-4)" points="262.918596 178.887108 268.677051 178.887108 268.677051 166.738187 262.918596 166.738187"></polygon>
                            <path d="M283.501343,183.655321 C283.501343,183.783263 275.888072,183.887637 266.497361,183.887637 C257.104407,183.887637 249.492257,183.783263 249.492257,183.655321 C249.492257,183.527378 257.104407,183.423004 266.497361,183.423004 C275.888072,183.423004 283.501343,183.527378 283.501343,183.655321" id="Fill-190" fill="#E6E6E6" mask="url(#mask-4)"></path>
                            <polygon id="Fill-191" fill="#FFFFFF" mask="url(#mask-4)" points="262.918596 203.376863 268.677051 203.376863 268.677051 191.227942 262.918596 191.227942"></polygon>
                            <path d="M283.501343,208.145301 C283.501343,208.273243 275.888072,208.376495 266.497361,208.376495 C257.104407,208.376495 249.492257,208.273243 249.492257,208.145301 C249.492257,208.017358 257.104407,207.912984 266.497361,207.912984 C275.888072,207.912984 283.501343,208.017358 283.501343,208.145301" id="Fill-192" fill="#E6E6E6" mask="url(#mask-4)"></path>
                            <polygon id="Fill-193" fill="#FFFFFF" mask="url(#mask-4)" points="262.918596 227.866619 268.677051 227.866619 268.677051 215.717698 262.918596 215.717698"></polygon>
                            <path d="M283.501343,232.635393 C283.501343,232.763335 275.888072,232.866587 266.497361,232.866587 C257.104407,232.866587 249.492257,232.763335 249.492257,232.635393 C249.492257,232.50745 257.104407,232.403076 266.497361,232.403076 C275.888072,232.403076 283.501343,232.50745 283.501343,232.635393" id="Fill-194" fill="#E6E6E6" mask="url(#mask-4)"></path>
                            <polygon id="Fill-195" fill="#FFFFFF" mask="url(#mask-4)" points="262.918596 252.356374 268.677051 252.356374 268.677051 240.206331 262.918596 240.206331"></polygon>
                            <path d="M283.501343,257.124363 C283.501343,257.252305 275.888072,257.356679 266.497361,257.356679 C257.104407,257.356679 249.492257,257.252305 249.492257,257.124363 C249.492257,256.997542 257.104407,256.893168 266.497361,256.893168 C275.888072,256.893168 283.501343,256.997542 283.501343,257.124363" id="Fill-196" fill="#E6E6E6" mask="url(#mask-4)"></path>
                            <polygon id="Fill-197" fill="#FFFFFF" mask="url(#mask-4)" points="262.918596 276.847252 268.677051 276.847252 268.677051 264.697209 262.918596 264.697209"></polygon>
                            <path d="M283.501343,281.614455 C283.501343,281.742397 275.888072,281.846771 266.497361,281.846771 C257.104407,281.846771 249.492257,281.742397 249.492257,281.614455 C249.492257,281.487635 257.104407,281.38326 266.497361,281.38326 C275.888072,281.38326 283.501343,281.487635 283.501343,281.614455" id="Fill-198" fill="#E6E6E6" mask="url(#mask-4)"></path>
                            <polygon id="Fill-199" fill="#FFFFFF" mask="url(#mask-4)" points="262.918596 301.335885 268.677051 301.335885 268.677051 289.186964 262.918596 289.186964"></polygon>
                            <polygon id="Fill-200" fill="#EFEFEF" mask="url(#mask-4)" points="6.12627815 311.516288 87.6081325 311.516288 87.6081325 203.958216 6.12627815 203.958216"></polygon>
                            <polygon id="Fill-201" fill="#DADADA" mask="url(#mask-4)" points="49.4015982 311.516288 87.607011 311.516288 87.607011 203.958216 49.4015982 203.958216"></polygon>
                            <path d="M49.4020468,243.32577 C49.4020468,243.526662 39.7130402,243.688273 27.7643868,243.688273 C15.8123691,243.688273 6.1256053,243.526662 6.1256053,243.32577 C6.1256053,243.124878 15.8123691,242.963266 27.7643868,242.963266 C39.7130402,242.963266 49.4020468,243.124878 49.4020468,243.32577" id="Fill-204" fill="#F7F7F7" mask="url(#mask-4)"></path>
                            <path d="M49.4020468,278.450348 C49.4020468,278.65124 39.7130402,278.812852 27.7643868,278.812852 C15.8123691,278.812852 6.1256053,278.65124 6.1256053,278.450348 C6.1256053,278.250578 15.8123691,278.087845 27.7643868,278.087845 C39.7130402,278.087845 49.4020468,278.250578 49.4020468,278.450348" id="Fill-206" fill="#F7F7F7" mask="url(#mask-4)"></path>
                            <polygon id="Fill-207" fill="#F7F7F7" mask="url(#mask-4)" points="57.5161413 236.334388 64.8423311 236.334388 64.8423311 218.520086 57.5161413 218.520086"></polygon>
                            <polygon id="Fill-208" fill="#F7F7F7" mask="url(#mask-4)" points="73.4110464 236.334388 80.7372362 236.334388 80.7372362 218.520086 73.4110464 218.520086"></polygon>
                            <polygon id="Fill-209" fill="#F7F7F7" mask="url(#mask-4)" points="57.5161413 270.137007 64.8423311 270.137007 64.8423311 252.322705 57.5161413 252.322705"></polygon>
                            <polygon id="Fill-210" fill="#F7F7F7" mask="url(#mask-4)" points="73.4110464 270.137007 80.7372362 270.137007 80.7372362 252.322705 73.4110464 252.322705"></polygon>
                            <polygon id="Fill-211" fill="#F7F7F7" mask="url(#mask-4)" points="57.5161413 303.939626 64.8423311 303.939626 64.8423311 286.125324 57.5161413 286.125324"></polygon>
                            <polygon id="Fill-212" fill="#F7F7F7" mask="url(#mask-4)" points="73.4110464 303.939626 80.7372362 303.939626 80.7372362 286.125324 73.4110464 286.125324"></polygon>
                            <polygon id="Fill-213" fill="#E6E6E6" mask="url(#mask-4)" points="0 204.092892 93.7344106 204.092892 93.7344106 200.214216 0 200.214216"></polygon>
                            <path d="M88.1772494,204.457304 C88.1772494,204.658196 69.9655055,204.819807 47.5036071,204.819807 C25.0361015,204.819807 6.82772185,204.658196 6.82772185,204.457304 C6.82772185,204.257534 25.0361015,204.095922 47.5036071,204.095922 C69.9655055,204.095922 88.1772494,204.257534 88.1772494,204.457304" id="Fill-214" fill="#EFEFEF" mask="url(#mask-4)"></path>
                            <path d="M208.333828,294.574688 C208.268786,294.592645 208.282243,294.143724 207.821342,293.820501 C207.601545,293.667868 207.259514,293.593796 206.93879,293.72286 C206.620309,293.841824 206.352291,294.18076 206.355656,294.574688 C206.352291,294.968616 206.620309,295.307551 206.93879,295.427637 C207.259514,295.55558 207.601545,295.48263 207.821342,295.329997 C208.282243,295.005652 208.268786,294.556731 208.333828,294.574688 C208.365227,294.542141 208.524468,295.052788 207.987311,295.547724 C207.729386,295.775551 207.274093,295.92145 206.816556,295.764328 C206.363506,295.622918 205.96204,295.14145 205.967647,294.574688 C205.96204,294.007925 206.363506,293.52758 206.816556,293.385047 C207.274093,293.229047 207.729386,293.373824 207.987311,293.601652 C208.524468,294.097709 208.365227,294.608357 208.333828,294.574688" id="Fill-215" fill="#000000" mask="url(#mask-4)"></path>
                        </g>
                    </g>
                    <g id="Group-217-Copy" transform="translate(1306.000000, 0.000000)">
                        <g id="Group-104">
                            <mask id="mask-6" fill="white">
                                <use xlink:href="#path-5"></use>
                            </mask>
                            <g id="Clip-60"></g>
                        </g>
                        <polygon id="Fill-105" fill="#EFEFEF" points="134 312 240 312 240 34 134 34"></polygon>
                        <polygon id="Fill-107" fill="#EFEFEF" points="146 34 184 34 184 1 146 1"></polygon>
                        <polygon id="Fill-108" fill="#E6E6E6" points="175 34 184 34 184 1 175 1"></polygon>
                        <polygon id="Fill-109" fill="#E6E6E6" points="125 34 243 34 243 32 125 32"></polygon>
                        <polygon id="Fill-110" fill="#FFFFFF" points="155 68 164 68 164 49 155 49"></polygon>
                        <g id="Group-216">
                            <path d="M187.038984,74.5091914 C187.038984,74.7100835 175.144158,74.871695 160.474957,74.871695 C145.801271,74.871695 133.908688,74.7100835 133.908688,74.5091914 C133.908688,74.3094216 145.801271,74.1466878 160.474957,74.1466878 C175.144158,74.1466878 187.038984,74.3094216 187.038984,74.5091914" id="Fill-111" fill="#E6E6E6"></path>
                            <mask id="mask-8" fill="white">
                                <use xlink:href="#path-7"></use>
                            </mask>
                            <g id="Clip-114"></g>
                            <polygon id="Fill-127" fill="#FFFFFF" mask="url(#mask-8)" points="154.882808 105.319079 163.87766 105.319079 163.87766 86.338705 154.882808 86.338705"></polygon>
                            <path d="M187.038984,112.76836 C187.038984,112.969252 175.144158,113.130863 160.474957,113.130863 C145.801271,113.130863 133.908688,112.969252 133.908688,112.76836 C133.908688,112.567468 145.801271,112.405856 160.474957,112.405856 C175.144158,112.405856 187.038984,112.567468 187.038984,112.76836" id="Fill-128" fill="#E6E6E6" mask="url(#mask-8)"></path>
                            <polygon id="Fill-129" fill="#FFFFFF" mask="url(#mask-8)" points="154.882808 143.57836 163.87766 143.57836 163.87766 124.597986 154.882808 124.597986"></polygon>
                            <path d="M187.038984,151.027416 C187.038984,151.228308 175.144158,151.389919 160.474957,151.389919 C145.801271,151.389919 133.908688,151.228308 133.908688,151.027416 C133.908688,150.826524 145.801271,150.664912 160.474957,150.664912 C175.144158,150.664912 187.038984,150.826524 187.038984,151.027416" id="Fill-130" fill="#E6E6E6" mask="url(#mask-8)"></path>
                            <polygon id="Fill-131" fill="#FFFFFF" mask="url(#mask-8)" points="154.882808 181.836518 163.87766 181.836518 163.87766 162.856144 154.882808 162.856144"></polygon>
                            <path d="M187.038984,189.286472 C187.038984,189.487364 175.144158,189.648976 160.474957,189.648976 C145.801271,189.648976 133.908688,189.487364 133.908688,189.286472 C133.908688,189.08558 145.801271,188.925091 160.474957,188.925091 C175.144158,188.925091 187.038984,189.08558 187.038984,189.286472" id="Fill-132" fill="#E6E6E6" mask="url(#mask-8)"></path>
                            <polygon id="Fill-133" fill="#FFFFFF" mask="url(#mask-8)" points="154.882808 220.095799 163.87766 220.095799 163.87766 201.115424 154.882808 201.115424"></polygon>
                            <path d="M187.038984,227.54564 C187.038984,227.746532 175.144158,227.908144 160.474957,227.908144 C145.801271,227.908144 133.908688,227.746532 133.908688,227.54564 C133.908688,227.345871 145.801271,227.183137 160.474957,227.183137 C175.144158,227.183137 187.038984,227.345871 187.038984,227.54564" id="Fill-134" fill="#E6E6E6" mask="url(#mask-8)"></path>
                            <polygon id="Fill-135" fill="#FFFFFF" mask="url(#mask-8)" points="154.882808 258.355079 163.87766 258.355079 163.87766 239.374705 154.882808 239.374705"></polygon>
                            <path d="M187.038984,265.804696 C187.038984,266.005588 175.144158,266.1672 160.474957,266.1672 C145.801271,266.1672 133.908688,266.005588 133.908688,265.804696 C133.908688,265.603804 145.801271,265.442193 160.474957,265.442193 C175.144158,265.442193 187.038984,265.603804 187.038984,265.804696" id="Fill-136" fill="#E6E6E6" mask="url(#mask-8)"></path>
                            <polygon id="Fill-137" fill="#FFFFFF" mask="url(#mask-8)" points="154.882808 296.61436 163.87766 296.61436 163.87766 277.633986 154.882808 277.633986"></polygon>
                            <polygon id="Fill-138" fill="#EFEFEF" mask="url(#mask-8)" points="63.9339868 311.184086 147.226923 311.184086 147.226923 92.9950791 63.9339868 92.9950791"></polygon>
                            <polygon id="Fill-139" fill="#DADADA" mask="url(#mask-8)" points="105.579894 311.184086 147.226923 311.184086 147.226923 92.9950791 105.579894 92.9950791"></polygon>
                            <polygon id="Fill-140" fill="#EFEFEF" mask="url(#mask-8)" points="73.4435673 92.9950791 102.857104 92.9950791 102.857104 67.0597986 73.4435673 67.0597986"></polygon>
                            <polygon id="Fill-141" fill="#E6E6E6" mask="url(#mask-8)" points="95.8471523 92.9950791 102.857104 92.9950791 102.857104 67.0597986 95.8471523 67.0597986"></polygon>
                            <polygon id="Fill-142" fill="#E6E6E6" mask="url(#mask-8)" points="56.9924415 92.9950791 149.664874 92.9950791 149.664874 91.4822158 56.9924415 91.4822158"></polygon>
                            <polygon id="Fill-143" fill="#FFFFFF" mask="url(#mask-8)" points="80.3750199 119.185122 87.4253422 119.185122 87.4253422 104.306763 80.3750199 104.306763"></polygon>
                            <path d="M105.580006,125.024909 C105.580006,125.182032 96.2565801,125.308852 84.7587347,125.308852 C73.2552821,125.308852 63.9329775,125.182032 63.9329775,125.024909 C63.9329775,124.867787 73.2552821,124.740967 84.7587347,124.740967 C96.2565801,124.740967 105.580006,124.867787 105.580006,125.024909" id="Fill-144" fill="#E6E6E6" mask="url(#mask-8)"></path>
                            <polygon id="Fill-145" fill="#F7F7F7" mask="url(#mask-8)" points="122.384265 119.185122 129.434587 119.185122 129.434587 104.306763 122.384265 104.306763"></polygon>
                            <path d="M147.589139,125.024909 C147.589139,125.182032 138.265713,125.308852 126.766746,125.308852 C115.264415,125.308852 105.94211,125.182032 105.94211,125.024909 C105.94211,124.867787 115.264415,124.740967 126.766746,124.740967 C138.265713,124.740967 147.589139,124.867787 147.589139,125.024909" id="Fill-146" fill="#EFEFEF" mask="url(#mask-8)"></path>
                            <polygon id="Fill-147" fill="#F7F7F7" mask="url(#mask-8)" points="122.384265 148.725237 129.434587 148.725237 129.434587 133.846878 122.384265 133.846878"></polygon>
                            <path d="M147.589139,154.564239 C147.589139,154.721361 138.265713,154.848181 126.766746,154.848181 C115.264415,154.848181 105.94211,154.721361 105.94211,154.564239 C105.94211,154.405994 115.264415,154.279174 126.766746,154.279174 C138.265713,154.279174 147.589139,154.405994 147.589139,154.564239" id="Fill-148" fill="#EFEFEF" mask="url(#mask-8)"></path>
                            <polygon id="Fill-149" fill="#F7F7F7" mask="url(#mask-8)" points="122.384265 179.155338 129.434587 179.155338 129.434587 164.276978 122.384265 164.276978"></polygon>
                            <path d="M147.589139,184.993442 C147.589139,185.151686 138.265713,185.278506 126.766746,185.278506 C115.264415,185.278506 105.94211,185.151686 105.94211,184.993442 C105.94211,184.836319 115.264415,184.709499 126.766746,184.709499 C138.265713,184.709499 147.589139,184.836319 147.589139,184.993442" id="Fill-150" fill="#EFEFEF" mask="url(#mask-8)"></path>
                            <polygon id="Fill-151" fill="#F7F7F7" mask="url(#mask-8)" points="122.384265 209.584317 129.434587 209.584317 129.434587 194.707079 122.384265 194.707079"></polygon>
                            <path d="M147.589139,215.423879 C147.589139,215.581001 138.265713,215.708944 126.766746,215.708944 C115.264415,215.708944 105.94211,215.581001 105.94211,215.423879 C105.94211,215.266757 115.264415,215.139937 126.766746,215.139937 C138.265713,215.139937 147.589139,215.266757 147.589139,215.423879" id="Fill-152" fill="#EFEFEF" mask="url(#mask-8)"></path>
                            <polygon id="Fill-153" fill="#F7F7F7" mask="url(#mask-8)" points="122.384265 239.144633 129.434587 239.144633 129.434587 224.266273 122.384265 224.266273"></polygon>
                            <path d="M147.589139,244.984083 C147.589139,245.141206 138.265713,245.268026 126.766746,245.268026 C115.264415,245.268026 105.94211,245.141206 105.94211,244.984083 C105.94211,244.826961 115.264415,244.700141 126.766746,244.700141 C138.265713,244.700141 147.589139,244.826961 147.589139,244.984083" id="Fill-154" fill="#EFEFEF" mask="url(#mask-8)"></path>
                            <polygon id="Fill-155" fill="#F7F7F7" mask="url(#mask-8)" points="122.384265 268.823914 129.434587 268.823914 129.434587 253.945554 122.384265 253.945554"></polygon>
                            <polygon id="Fill-156" fill="#F7F7F7" mask="url(#mask-8)" points="122.384265 298.891511 129.434587 298.891511 129.434587 284.013151 122.384265 284.013151"></polygon>
                            <path d="M147.589139,274.663701 C147.589139,274.820823 138.265713,274.947643 126.766746,274.947643 C115.264415,274.947643 105.94211,274.820823 105.94211,274.663701 C105.94211,274.506578 115.264415,274.378636 126.766746,274.378636 C138.265713,274.378636 147.589139,274.506578 147.589139,274.663701" id="Fill-157" fill="#EFEFEF" mask="url(#mask-8)"></path>
                            <polygon id="Fill-158" fill="#FFFFFF" mask="url(#mask-8)" points="80.3750199 149.175281 87.4253422 149.175281 87.4253422 134.296921 80.3750199 134.296921"></polygon>
                            <path d="M105.580006,155.014619 C105.580006,155.171741 96.2565801,155.298561 84.7587347,155.298561 C73.2552821,155.298561 63.9329775,155.171741 63.9329775,155.014619 C63.9329775,154.857496 73.2552821,154.730676 84.7587347,154.730676 C96.2565801,154.730676 105.580006,154.857496 105.580006,155.014619" id="Fill-159" fill="#E6E6E6" mask="url(#mask-8)"></path>
                            <polygon id="Fill-160" fill="#FFFFFF" mask="url(#mask-8)" points="80.3750199 179.165439 87.4253422 179.165439 87.4253422 164.287079 80.3750199 164.287079"></polygon>
                            <path d="M105.580006,185.00444 C105.580006,185.161563 96.2565801,185.288383 84.7587347,185.288383 C73.2552821,185.288383 63.9329775,185.161563 63.9329775,185.00444 C63.9329775,184.847318 73.2552821,184.720498 84.7587347,184.720498 C96.2565801,184.720498 105.580006,184.847318 105.580006,185.00444" id="Fill-161" fill="#E6E6E6" mask="url(#mask-8)"></path>
                            <polygon id="Fill-162" fill="#FFFFFF" mask="url(#mask-8)" points="80.3750199 209.154475 87.4253422 209.154475 87.4253422 194.276115 80.3750199 194.276115"></polygon>
                            <path d="M105.580006,214.994262 C105.580006,215.151384 96.2565801,215.278204 84.7587347,215.278204 C73.2552821,215.278204 63.9329775,215.151384 63.9329775,214.994262 C63.9329775,214.83714 73.2552821,214.710319 84.7587347,214.710319 C96.2565801,214.710319 105.580006,214.83714 105.580006,214.994262" id="Fill-163" fill="#E6E6E6" mask="url(#mask-8)"></path>
                            <polygon id="Fill-164" fill="#FFFFFF" mask="url(#mask-8)" points="80.3750199 239.144633 87.4253422 239.144633 87.4253422 224.266273 80.3750199 224.266273"></polygon>
                            <path d="M105.580006,244.984083 C105.580006,245.141206 96.2565801,245.268026 84.7587347,245.268026 C73.2552821,245.268026 63.9329775,245.141206 63.9329775,244.984083 C63.9329775,244.826961 73.2552821,244.700141 84.7587347,244.700141 C96.2565801,244.700141 105.580006,244.826961 105.580006,244.984083" id="Fill-165" fill="#E6E6E6" mask="url(#mask-8)"></path>
                            <polygon id="Fill-166" fill="#FFFFFF" mask="url(#mask-8)" points="80.3750199 269.134791 87.4253422 269.134791 87.4253422 254.256432 80.3750199 254.256432"></polygon>
                            <path d="M105.580006,274.973793 C105.580006,275.130915 96.2565801,275.257735 84.7587347,275.257735 C73.2552821,275.257735 63.9329775,275.130915 63.9329775,274.973793 C63.9329775,274.816671 73.2552821,274.68985 84.7587347,274.68985 C96.2565801,274.68985 105.580006,274.816671 105.580006,274.973793" id="Fill-167" fill="#E6E6E6" mask="url(#mask-8)"></path>
                            <polygon id="Fill-168" fill="#FFFFFF" mask="url(#mask-8)" points="80.3750199 299.123827 87.4253422 299.123827 87.4253422 284.245468 80.3750199 284.245468"></polygon>
                            <polygon id="Fill-200" fill="#EFEFEF" mask="url(#mask-8)" points="6.12627815 311.516288 87.6081325 311.516288 87.6081325 203.958216 6.12627815 203.958216"></polygon>
                            <polygon id="Fill-201" fill="#DADADA" mask="url(#mask-8)" points="49.4015982 311.516288 87.607011 311.516288 87.607011 203.958216 49.4015982 203.958216"></polygon>
                            <polygon id="Fill-202" fill="#F7F7F7" mask="url(#mask-8)" points="23.2110022 236.334388 30.5371921 236.334388 30.5371921 218.520086 23.2110022 218.520086"></polygon>
                            <polygon id="Fill-203" fill="#F7F7F7" mask="url(#mask-8)" points="23.2110022 306.054043 30.5371921 306.054043 30.5371921 288.240863 23.2110022 288.240863"></polygon>
                            <path d="M49.4020468,243.32577 C49.4020468,243.526662 39.7130402,243.688273 27.7643868,243.688273 C15.8123691,243.688273 6.1256053,243.526662 6.1256053,243.32577 C6.1256053,243.124878 15.8123691,242.963266 27.7643868,242.963266 C39.7130402,242.963266 49.4020468,243.124878 49.4020468,243.32577" id="Fill-204" fill="#F7F7F7" mask="url(#mask-8)"></path>
                            <polygon id="Fill-205" fill="#F7F7F7" mask="url(#mask-8)" points="23.2110022 271.459079 30.5371921 271.459079 30.5371921 253.644777 23.2110022 253.644777"></polygon>
                            <path d="M49.4020468,278.450348 C49.4020468,278.65124 39.7130402,278.812852 27.7643868,278.812852 C15.8123691,278.812852 6.1256053,278.65124 6.1256053,278.450348 C6.1256053,278.250578 15.8123691,278.087845 27.7643868,278.087845 C39.7130402,278.087845 49.4020468,278.250578 49.4020468,278.450348" id="Fill-206" fill="#F7F7F7" mask="url(#mask-8)"></path>
                            <polygon id="Fill-207" fill="#F7F7F7" mask="url(#mask-8)" points="57.5161413 236.334388 64.8423311 236.334388 64.8423311 218.520086 57.5161413 218.520086"></polygon>
                            <polygon id="Fill-208" fill="#F7F7F7" mask="url(#mask-8)" points="73.4110464 236.334388 80.7372362 236.334388 80.7372362 218.520086 73.4110464 218.520086"></polygon>
                            <polygon id="Fill-209" fill="#F7F7F7" mask="url(#mask-8)" points="57.5161413 270.137007 64.8423311 270.137007 64.8423311 252.322705 57.5161413 252.322705"></polygon>
                            <polygon id="Fill-210" fill="#F7F7F7" mask="url(#mask-8)" points="73.4110464 270.137007 80.7372362 270.137007 80.7372362 252.322705 73.4110464 252.322705"></polygon>
                            <polygon id="Fill-211" fill="#F7F7F7" mask="url(#mask-8)" points="57.5161413 303.939626 64.8423311 303.939626 64.8423311 286.125324 57.5161413 286.125324"></polygon>
                            <polygon id="Fill-212" fill="#F7F7F7" mask="url(#mask-8)" points="73.4110464 303.939626 80.7372362 303.939626 80.7372362 286.125324 73.4110464 286.125324"></polygon>
                            <polygon id="Fill-213" fill="#E6E6E6" mask="url(#mask-8)" points="0 204.092892 93.7344106 204.092892 93.7344106 200.214216 0 200.214216"></polygon>
                            <path d="M88.1772494,204.457304 C88.1772494,204.658196 69.9655055,204.819807 47.5036071,204.819807 C25.0361015,204.819807 6.82772185,204.658196 6.82772185,204.457304 C6.82772185,204.257534 25.0361015,204.095922 47.5036071,204.095922 C69.9655055,204.095922 88.1772494,204.257534 88.1772494,204.457304" id="Fill-214" fill="#EFEFEF" mask="url(#mask-8)"></path>
                        </g>
                    </g>
                </g>
                <path d="M0,152 L296,152 C296,152 269.839496,104.422915 193.628392,111.393669 C120.873726,118.161391 117.18008,88.01119 80.1758443,84.3227816 C43.1716085,80.6343732 12.3347453,108.889612 0,152 Z" id="Path" fill="#F6F6F6" fill-rule="nonzero"></path>
                <path d="M1503,203 L1651,203 C1651,203 1637.91975,179.211458 1599.8142,182.696834 C1563.43686,186.080695 1561.59004,171.005595 1543.08792,169.161391 C1524.5858,167.317187 1509.16737,181.444806 1503,203 Z" id="Path-Copy-2" fill="#F6F6F6" fill-rule="nonzero"></path>
            </g>
        </g>
    </g>
</svg>